<?xml version="1.0" encoding="utf-8"?>
<svg xmlns="http://www.w3.org/2000/svg" version="1.1" width="128" height="128" preserveaspectratio="xMinYMin" viewbox="0 0 128 128" data-seed="387742128"><rect width="100%" height="100%" fill="#f2f2f2"></rect><polygon points="64,56.263523723179205 69.47051483782883,58.52948516217116 71.7364762768208,64 69.47051483782883,69.47051483782883 64,71.7364762768208 58.52948516217116,69.47051483782883 56.263523723179205,64 58.52948516217116,58.52948516217116" fill="hsl(-138.67490488104522,66.65761368349195%,33.296998352743685%)" stroke="hsl(-138.67490488104522,66.65761368349195%,33.296998352743685%)"></polygon><polygon points="64,54.32940465397401 70.83814354728605,57.161856452713955 76.30865838511488,51.691341614885125 64,46.59292837715322" fill="hsl(-138.67490488104522,66.65761368349195%,33.296998352743685%)" stroke="hsl(-138.67490488104522,66.65761368349195%,33.296998352743685%)"></polygon><polygon points="70.83814354728605,57.161856452713955 73.67059534602599,64 81.40707162284679,64 76.30865838511488,51.691341614885125" fill="hsl(-138.67490488104522,66.65761368349195%,33.296998352743685%)" stroke="hsl(-138.67490488104522,66.65761368349195%,33.296998352743685%)"></polygon><polygon points="73.67059534602599,64 70.83814354728605,70.83814354728604 76.30865838511488,76.30865838511488 81.40707162284679,64" fill="hsl(-138.67490488104522,66.65761368349195%,33.296998352743685%)" stroke="hsl(-138.67490488104522,66.65761368349195%,33.296998352743685%)"></polygon><polygon points="57.161856452713955,70.83814354728605 54.32940465397401,64 46.59292837715322,64 51.691341614885125,76.30865838511488" fill="hsl(-138.67490488104522,66.65761368349195%,33.296998352743685%)" stroke="hsl(-138.67490488104522,66.65761368349195%,33.296998352743685%)"></polygon><polygon points="54.32940465397401,64 57.161856452713955,57.161856452713955 51.69134161488512,51.691341614885125 46.59292837715322,64" fill="hsl(-138.67490488104522,66.65761368349195%,33.296998352743685%)" stroke="hsl(-138.67490488104522,66.65761368349195%,33.296998352743685%)"></polygon><polygon points="57.161856452713955,57.161856452713955 64,54.32940465397401 64,46.59292837715322 51.69134161488512,51.691341614885125" fill="hsl(-138.67490488104522,66.65761368349195%,33.296998352743685%)" stroke="hsl(-138.67490488104522,66.65761368349195%,33.296998352743685%)"></polygon><polygon points="77.67628709457209,50.32371290542791 83.34119069205198,64 91.07766696887276,64 83.14680193240092,44.85319806759908" fill="hsl(-138.67490488104522,66.65761368349195%,33.296998352743685%)" stroke="hsl(-138.67490488104522,66.65761368349195%,33.296998352743685%)"></polygon><polygon points="44.65880930794802,64 50.32371290542791,50.32371290542791 44.853198067599074,44.85319806759908 36.92233303112723,64" fill="hsl(-138.67490488104522,66.65761368349195%,33.296998352743685%)" stroke="hsl(-138.67490488104522,66.65761368349195%,33.296998352743685%)"></polygon><polygon points="64,34.988213961922035 84.51443064185813,43.48556935814187 89.98494547968696,38.01505452031304 64,27.251737685101247" fill="hsl(-138.67490488104522,66.65761368349195%,33.296998352743685%)" stroke="hsl(-138.67490488104522,66.65761368349195%,33.296998352743685%)"></polygon><polygon points="84.51443064185813,43.48556935814187 93.01178603807796,64 100.74826231489875,64 89.98494547968696,38.01505452031304" fill="hsl(-138.67490488104522,66.65761368349195%,33.296998352743685%)" stroke="hsl(-138.67490488104522,66.65761368349195%,33.296998352743685%)"></polygon><polygon points="93.01178603807796,64 84.51443064185813,84.51443064185813 89.98494547968696,89.98494547968696 100.74826231489875,64" fill="hsl(-138.67490488104522,66.65761368349195%,33.296998352743685%)" stroke="hsl(-138.67490488104522,66.65761368349195%,33.296998352743685%)"></polygon><polygon points="84.51443064185813,84.51443064185813 64,93.01178603807796 64,100.74826231489875 89.98494547968696,89.98494547968696" fill="hsl(-138.67490488104522,66.65761368349195%,33.296998352743685%)" stroke="hsl(-138.67490488104522,66.65761368349195%,33.296998352743685%)"></polygon><polygon points="64,93.01178603807796 43.48556935814187,84.51443064185813 38.01505452031304,89.98494547968696 64,100.74826231489875" fill="hsl(-138.67490488104522,66.65761368349195%,33.296998352743685%)" stroke="hsl(-138.67490488104522,66.65761368349195%,33.296998352743685%)"></polygon><polygon points="43.48556935814187,84.51443064185813 34.988213961922035,64 27.251737685101247,64 38.01505452031304,89.98494547968696" fill="hsl(-138.67490488104522,66.65761368349195%,33.296998352743685%)" stroke="hsl(-138.67490488104522,66.65761368349195%,33.296998352743685%)"></polygon><polygon points="34.988213961922035,64 43.485569358141866,43.48556935814187 38.01505452031303,38.01505452031304 27.251737685101247,64" fill="hsl(-138.67490488104522,66.65761368349195%,33.296998352743685%)" stroke="hsl(-138.67490488104522,66.65761368349195%,33.296998352743685%)"></polygon><polygon points="43.485569358141866,43.48556935814187 64,34.988213961922035 64,27.251737685101247 38.01505452031303,38.01505452031304" fill="hsl(-138.67490488104522,66.65761368349195%,33.296998352743685%)" stroke="hsl(-138.67490488104522,66.65761368349195%,33.296998352743685%)"></polygon><polygon points="64,25.317618615896045 91.35257418914418,36.64742581085583 96.82308902697301,31.17691097302699 64,17.581142339075257" fill="hsl(-138.67490488104522,66.65761368349195%,33.296998352743685%)" stroke="hsl(-138.67490488104522,66.65761368349195%,33.296998352743685%)"></polygon><polygon points="91.35257418914418,36.64742581085583 102.68238138410396,64 110.41885766092474,64 96.82308902697301,31.17691097302699" fill="hsl(-138.67490488104522,66.65761368349195%,33.296998352743685%)" stroke="hsl(-138.67490488104522,66.65761368349195%,33.296998352743685%)"></polygon><polygon points="102.68238138410396,64 91.35257418914418,91.35257418914418 96.82308902697301,96.82308902697301 110.41885766092474,64" fill="hsl(-138.67490488104522,66.65761368349195%,33.296998352743685%)" stroke="hsl(-138.67490488104522,66.65761368349195%,33.296998352743685%)"></polygon><polygon points="91.35257418914418,91.35257418914418 64,102.68238138410396 64,110.41885766092474 96.82308902697301,96.82308902697301" fill="hsl(-138.67490488104522,66.65761368349195%,33.296998352743685%)" stroke="hsl(-138.67490488104522,66.65761368349195%,33.296998352743685%)"></polygon><polygon points="64,102.68238138410396 36.64742581085583,91.35257418914418 31.17691097302699,96.82308902697301 64,110.41885766092474" fill="hsl(-138.67490488104522,66.65761368349195%,33.296998352743685%)" stroke="hsl(-138.67490488104522,66.65761368349195%,33.296998352743685%)"></polygon><polygon points="36.64742581085583,91.35257418914418 25.317618615896045,64 17.581142339075257,64 31.17691097302699,96.82308902697301" fill="hsl(-138.67490488104522,66.65761368349195%,33.296998352743685%)" stroke="hsl(-138.67490488104522,66.65761368349195%,33.296998352743685%)"></polygon><polygon points="25.317618615896045,64 36.64742581085582,36.64742581085583 31.176910973026985,31.17691097302699 17.581142339075257,64" fill="hsl(-138.67490488104522,66.65761368349195%,33.296998352743685%)" stroke="hsl(-138.67490488104522,66.65761368349195%,33.296998352743685%)"></polygon><polygon points="36.64742581085582,36.64742581085583 64,25.317618615896045 64,17.581142339075257 31.176910973026985,31.17691097302699" fill="hsl(-138.67490488104522,66.65761368349195%,33.296998352743685%)" stroke="hsl(-138.67490488104522,66.65761368349195%,33.296998352743685%)"></polygon><polygon points="64,15.647023269870054 98.19071773643023,29.809282263569784 103.66123257425906,24.338767425740954 64,7.910546993049266" fill="hsl(-138.67490488104522,66.65761368349195%,33.296998352743685%)" stroke="hsl(-138.67490488104522,66.65761368349195%,33.296998352743685%)"></polygon><polygon points="98.19071773643023,29.809282263569784 112.35297673012994,64 120.08945300695073,64 103.66123257425906,24.338767425740954" fill="hsl(-138.67490488104522,66.65761368349195%,33.296998352743685%)" stroke="hsl(-138.67490488104522,66.65761368349195%,33.296998352743685%)"></polygon><polygon points="112.35297673012994,64 98.19071773643023,98.19071773643022 103.66123257425906,103.66123257425905 120.08945300695073,64" fill="hsl(-138.67490488104522,66.65761368349195%,33.296998352743685%)" stroke="hsl(-138.67490488104522,66.65761368349195%,33.296998352743685%)"></polygon><polygon points="98.19071773643023,98.19071773643022 64,112.35297673012994 64,120.08945300695073 103.66123257425906,103.66123257425905" fill="hsl(-138.67490488104522,66.65761368349195%,33.296998352743685%)" stroke="hsl(-138.67490488104522,66.65761368349195%,33.296998352743685%)"></polygon><polygon points="64,112.35297673012994 29.809282263569784,98.19071773643023 24.338767425740954,103.66123257425906 64,120.08945300695073" fill="hsl(-138.67490488104522,66.65761368349195%,33.296998352743685%)" stroke="hsl(-138.67490488104522,66.65761368349195%,33.296998352743685%)"></polygon><polygon points="29.809282263569784,98.19071773643023 15.647023269870054,64 7.910546993049266,64 24.338767425740954,103.66123257425906" fill="hsl(-138.67490488104522,66.65761368349195%,33.296998352743685%)" stroke="hsl(-138.67490488104522,66.65761368349195%,33.296998352743685%)"></polygon><polygon points="15.647023269870054,64 29.80928226356977,29.809282263569784 24.33876742574094,24.338767425740954 7.910546993049266,64" fill="hsl(-138.67490488104522,66.65761368349195%,33.296998352743685%)" stroke="hsl(-138.67490488104522,66.65761368349195%,33.296998352743685%)"></polygon><polygon points="29.80928226356977,29.809282263569784 64,15.647023269870054 64,7.910546993049266 24.33876742574094,24.338767425740954" fill="hsl(-138.67490488104522,66.65761368349195%,33.296998352743685%)" stroke="hsl(-138.67490488104522,66.65761368349195%,33.296998352743685%)"></polygon></svg>