<?xml version="1.0" encoding="utf-8"?>
<svg xmlns="http://www.w3.org/2000/svg" version="1.1" width="128" height="128" preserveaspectratio="xMinYMin" viewbox="0 0 128 128" data-seed="387742128"><rect width="100%" height="100%" fill="#f2f2f2"></rect><polygon points="64,54.32940465397401 73.1972827202916,61.011621692354694 80.55510889652489,58.62091904623845 64,46.59292837715322" fill="hsl(-138.67490488104522,66.65761368349195%,33.296998352743685%)" stroke="hsl(-138.67490488104522,66.65761368349195%,33.296998352743685%)"></polygon><polygon points="73.1972827202916,61.011621692354694 69.6842333252823,71.8236759806583 74.23161998550815,78.08261676518494 80.55510889652489,58.62091904623845" fill="hsl(-138.67490488104522,66.65761368349195%,33.296998352743685%)" stroke="hsl(-138.67490488104522,66.65761368349195%,33.296998352743685%)"></polygon><polygon points="69.6842333252823,71.8236759806583 58.3157666747177,71.8236759806583 53.76838001449186,78.08261676518494 74.23161998550815,78.08261676518494" fill="hsl(-138.67490488104522,66.65761368349195%,33.296998352743685%)" stroke="hsl(-138.67490488104522,66.65761368349195%,33.296998352743685%)"></polygon><polygon points="58.3157666747177,71.8236759806583 54.802717279708396,61.011621692354694 47.444891103475115,58.62091904623844 53.76838001449186,78.08261676518494" fill="hsl(-138.67490488104522,66.65761368349195%,33.296998352743685%)" stroke="hsl(-138.67490488104522,66.65761368349195%,33.296998352743685%)"></polygon><polygon points="54.802717279708396,61.011621692354694 64,54.32940465397401 64,46.59292837715322 47.444891103475115,58.62091904623844" fill="hsl(-138.67490488104522,66.65761368349195%,33.296998352743685%)" stroke="hsl(-138.67490488104522,66.65761368349195%,33.296998352743685%)"></polygon><polygon points="75.3684666505646,79.6473519613166 52.6315333494354,79.6473519613166 48.084146689209554,85.90629274584325 79.91585331079045,85.90629274584325" fill="hsl(-138.67490488104522,66.65761368349195%,33.296998352743685%)" stroke="hsl(-138.67490488104522,66.65761368349195%,33.296998352743685%)"></polygon><polygon points="81.0526999758469,87.4710279419749 46.947300024153094,87.4710279419749 42.399913363927254,93.72996872650154 85.60008663607275,93.72996872650154" fill="hsl(-138.67490488104522,66.65761368349195%,33.296998352743685%)" stroke="hsl(-138.67490488104522,66.65761368349195%,33.296998352743685%)"></polygon><polygon points="64,25.317618615896045 100.78913088116641,52.04648676941878 108.14695705739969,49.65578412330254 64,17.581142339075257" fill="hsl(-138.67490488104522,66.65761368349195%,33.296998352743685%)" stroke="hsl(-138.67490488104522,66.65761368349195%,33.296998352743685%)"></polygon><polygon points="100.78913088116641,52.04648676941878 86.73693330112921,95.2947039226332 91.28431996135505,101.55364470715983 108.14695705739969,49.65578412330254" fill="hsl(-138.67490488104522,66.65761368349195%,33.296998352743685%)" stroke="hsl(-138.67490488104522,66.65761368349195%,33.296998352743685%)"></polygon><polygon points="86.73693330112921,95.2947039226332 41.263066698870794,95.2947039226332 36.715680038644955,101.55364470715983 91.28431996135505,101.55364470715983" fill="hsl(-138.67490488104522,66.65761368349195%,33.296998352743685%)" stroke="hsl(-138.67490488104522,66.65761368349195%,33.296998352743685%)"></polygon><polygon points="41.263066698870794,95.2947039226332 27.210869118833592,52.04648676941876 19.85304294260031,49.65578412330252 36.715680038644955,101.55364470715983" fill="hsl(-138.67490488104522,66.65761368349195%,33.296998352743685%)" stroke="hsl(-138.67490488104522,66.65761368349195%,33.296998352743685%)"></polygon><polygon points="27.210869118833592,52.04648676941876 64,25.317618615896045 64,17.581142339075257 19.85304294260031,49.65578412330252" fill="hsl(-138.67490488104522,66.65761368349195%,33.296998352743685%)" stroke="hsl(-138.67490488104522,66.65761368349195%,33.296998352743685%)"></polygon><polygon points="64,15.647023269870054 109.98641360145801,49.05810846177347 117.34423977769129,46.66740581565723 64,7.910546993049266" fill="hsl(-138.67490488104522,66.65761368349195%,33.296998352743685%)" stroke="hsl(-138.67490488104522,66.65761368349195%,33.296998352743685%)"></polygon><polygon points="109.98641360145801,49.05810846177347 92.42116662641152,103.1183799032915 96.96855328663736,109.37732068781814 117.34423977769129,46.66740581565723" fill="hsl(-138.67490488104522,66.65761368349195%,33.296998352743685%)" stroke="hsl(-138.67490488104522,66.65761368349195%,33.296998352743685%)"></polygon><polygon points="92.42116662641152,103.1183799032915 35.578833373588495,103.1183799032915 31.031446713362655,109.37732068781814 96.96855328663736,109.37732068781814" fill="hsl(-138.67490488104522,66.65761368349195%,33.296998352743685%)" stroke="hsl(-138.67490488104522,66.65761368349195%,33.296998352743685%)"></polygon><polygon points="35.578833373588495,103.1183799032915 18.01358639854199,49.05810846177346 10.655760222308714,46.66740581565721 31.031446713362655,109.37732068781814" fill="hsl(-138.67490488104522,66.65761368349195%,33.296998352743685%)" stroke="hsl(-138.67490488104522,66.65761368349195%,33.296998352743685%)"></polygon><polygon points="18.01358639854199,49.05810846177346 64,15.647023269870054 64,7.910546993049266 10.655760222308714,46.66740581565721" fill="hsl(-138.67490488104522,66.65761368349195%,33.296998352743685%)" stroke="hsl(-138.67490488104522,66.65761368349195%,33.296998352743685%)"></polygon></svg>