<?xml version="1.0" encoding="utf-8"?>
<svg xmlns="http://www.w3.org/2000/svg" version="1.1" width="128" height="128" preserveaspectratio="xMinYMin" viewbox="0 0 128 128" data-seed="635119914"><rect width="100%" height="100%" fill="#f2f2f2"></rect><polygon points="62.1524791385932,60.8 60.3049582771864,64 56.609916554372795,64 54.76239569296599,60.8 56.60991655437279,57.599999999999994 60.3049582771864,57.599999999999994" fill="hsl(133.89801886864007,57.067051460035145%,49.927446600049734%)" stroke="hsl(133.89801886864007,57.067051460035145%,49.927446600049734%)"></polygon><polygon points="62.1524791385932,67.2 60.3049582771864,70.4 56.609916554372795,70.4 54.76239569296599,67.2 56.60991655437279,64 60.3049582771864,64" fill="hsl(133.89801886864007,57.067051460035145%,49.927446600049734%)" stroke="hsl(133.89801886864007,57.067051460035145%,49.927446600049734%)"></polygon><polygon points="67.6950417228136,70.4 65.8475208614068,73.60000000000001 62.1524791385932,73.60000000000001 60.304958277186394,70.4 62.15247913859319,67.2 65.8475208614068,67.2" fill="hsl(133.89801886864007,57.067051460035145%,49.927446600049734%)" stroke="hsl(133.89801886864007,57.067051460035145%,49.927446600049734%)"></polygon><polygon points="73.237604307034,60.8 71.39008344562721,64 67.6950417228136,64 65.8475208614068,60.8 67.6950417228136,57.599999999999994 71.39008344562721,57.599999999999994" fill="hsl(133.89801886864007,57.067051460035145%,49.927446600049734%)" stroke="hsl(133.89801886864007,57.067051460035145%,49.927446600049734%)"></polygon><polygon points="73.237604307034,67.2 71.39008344562721,70.4 67.6950417228136,70.4 65.8475208614068,67.2 67.6950417228136,64 71.39008344562721,64" fill="hsl(133.89801886864007,57.067051460035145%,49.927446600049734%)" stroke="hsl(133.89801886864007,57.067051460035145%,49.927446600049734%)"></polygon><polygon points="56.609916554372795,57.6 54.762395692965995,60.800000000000004 51.06735397015239,60.800000000000004 49.21983310874558,57.6 51.06735397015238,54.4 54.762395692965995,54.4" fill="hsl(133.89801886864007,57.067051460035145%,49.927446600049734%)" stroke="hsl(133.89801886864007,57.067051460035145%,49.927446600049734%)"></polygon><polygon points="56.609916554372795,64 54.762395692965995,67.2 51.06735397015239,67.2 49.21983310874558,64 51.06735397015238,60.8 54.762395692965995,60.8" fill="hsl(133.89801886864007,57.067051460035145%,49.927446600049734%)" stroke="hsl(133.89801886864007,57.067051460035145%,49.927446600049734%)"></polygon><polygon points="56.609916554372795,70.4 54.762395692965995,73.60000000000001 51.06735397015239,73.60000000000001 49.21983310874558,70.4 51.06735397015238,67.2 54.762395692965995,67.2" fill="hsl(133.89801886864007,57.067051460035145%,49.927446600049734%)" stroke="hsl(133.89801886864007,57.067051460035145%,49.927446600049734%)"></polygon><polygon points="62.1524791385932,54.4 60.3049582771864,57.6 56.609916554372795,57.6 54.76239569296599,54.4 56.60991655437279,51.199999999999996 60.3049582771864,51.199999999999996" fill="hsl(133.89801886864007,57.067051460035145%,49.927446600049734%)" stroke="hsl(133.89801886864007,57.067051460035145%,49.927446600049734%)"></polygon><polygon points="62.1524791385932,73.6 60.3049582771864,76.8 56.609916554372795,76.8 54.76239569296599,73.6 56.60991655437279,70.39999999999999 60.3049582771864,70.39999999999999" fill="hsl(133.89801886864007,57.067051460035145%,49.927446600049734%)" stroke="hsl(133.89801886864007,57.067051460035145%,49.927446600049734%)"></polygon><polygon points="67.6950417228136,76.8 65.8475208614068,80 62.1524791385932,80 60.304958277186394,76.8 62.15247913859319,73.6 65.8475208614068,73.6" fill="hsl(133.89801886864007,57.067051460035145%,49.927446600049734%)" stroke="hsl(133.89801886864007,57.067051460035145%,49.927446600049734%)"></polygon><polygon points="73.237604307034,54.4 71.39008344562721,57.6 67.6950417228136,57.6 65.8475208614068,54.4 67.6950417228136,51.199999999999996 71.39008344562721,51.199999999999996" fill="hsl(133.89801886864007,57.067051460035145%,49.927446600049734%)" stroke="hsl(133.89801886864007,57.067051460035145%,49.927446600049734%)"></polygon><polygon points="73.237604307034,73.6 71.39008344562721,76.8 67.6950417228136,76.8 65.8475208614068,73.6 67.6950417228136,70.39999999999999 71.39008344562721,70.39999999999999" fill="hsl(133.89801886864007,57.067051460035145%,49.927446600049734%)" stroke="hsl(133.89801886864007,57.067051460035145%,49.927446600049734%)"></polygon><polygon points="78.78016689125441,57.6 76.93264602984762,60.800000000000004 73.237604307034,60.800000000000004 71.39008344562721,57.6 73.237604307034,54.4 76.93264602984762,54.4" fill="hsl(133.89801886864007,57.067051460035145%,49.927446600049734%)" stroke="hsl(133.89801886864007,57.067051460035145%,49.927446600049734%)"></polygon><polygon points="78.78016689125441,64 76.93264602984762,67.2 73.237604307034,67.2 71.39008344562721,64 73.237604307034,60.8 76.93264602984762,60.8" fill="hsl(133.89801886864007,57.067051460035145%,49.927446600049734%)" stroke="hsl(133.89801886864007,57.067051460035145%,49.927446600049734%)"></polygon><polygon points="78.78016689125441,70.4 76.93264602984762,73.60000000000001 73.237604307034,73.60000000000001 71.39008344562721,70.4 73.237604307034,67.2 76.93264602984762,67.2" fill="hsl(133.89801886864007,57.067051460035145%,49.927446600049734%)" stroke="hsl(133.89801886864007,57.067051460035145%,49.927446600049734%)"></polygon><polygon points="51.06735397015238,54.4 49.219833108745576,57.6 45.52479138593198,57.6 43.67727052452517,54.4 45.52479138593197,51.199999999999996 49.219833108745576,51.199999999999996" fill="hsl(133.89801886864007,57.067051460035145%,49.927446600049734%)" stroke="hsl(133.89801886864007,57.067051460035145%,49.927446600049734%)"></polygon><polygon points="51.06735397015238,60.8 49.219833108745576,64 45.52479138593198,64 43.67727052452517,60.8 45.52479138593197,57.599999999999994 49.219833108745576,57.599999999999994" fill="hsl(133.89801886864007,57.067051460035145%,49.927446600049734%)" stroke="hsl(133.89801886864007,57.067051460035145%,49.927446600049734%)"></polygon><polygon points="51.06735397015238,67.2 49.219833108745576,70.4 45.52479138593198,70.4 43.67727052452517,67.2 45.52479138593197,64 49.219833108745576,64" fill="hsl(133.89801886864007,57.067051460035145%,49.927446600049734%)" stroke="hsl(133.89801886864007,57.067051460035145%,49.927446600049734%)"></polygon><polygon points="51.06735397015238,73.6 49.219833108745576,76.8 45.52479138593198,76.8 43.67727052452517,73.6 45.52479138593197,70.39999999999999 49.219833108745576,70.39999999999999" fill="hsl(133.89801886864007,57.067051460035145%,49.927446600049734%)" stroke="hsl(133.89801886864007,57.067051460035145%,49.927446600049734%)"></polygon><polygon points="56.609916554372795,51.2 54.762395692965995,54.400000000000006 51.06735397015239,54.400000000000006 49.21983310874558,51.2 51.06735397015238,48 54.762395692965995,48" fill="hsl(133.89801886864007,57.067051460035145%,49.927446600049734%)" stroke="hsl(133.89801886864007,57.067051460035145%,49.927446600049734%)"></polygon><polygon points="62.1524791385932,48 60.3049582771864,51.2 56.609916554372795,51.2 54.76239569296599,48 56.60991655437279,44.8 60.3049582771864,44.8" fill="hsl(133.89801886864007,57.067051460035145%,49.927446600049734%)" stroke="hsl(133.89801886864007,57.067051460035145%,49.927446600049734%)"></polygon><polygon points="62.1524791385932,80 60.3049582771864,83.2 56.609916554372795,83.2 54.76239569296599,80 56.60991655437279,76.8 60.3049582771864,76.8" fill="hsl(133.89801886864007,57.067051460035145%,49.927446600049734%)" stroke="hsl(133.89801886864007,57.067051460035145%,49.927446600049734%)"></polygon><polygon points="67.6950417228136,44.8 65.8475208614068,48 62.1524791385932,48 60.304958277186394,44.8 62.15247913859319,41.599999999999994 65.8475208614068,41.599999999999994" fill="hsl(133.89801886864007,57.067051460035145%,49.927446600049734%)" stroke="hsl(133.89801886864007,57.067051460035145%,49.927446600049734%)"></polygon><polygon points="73.237604307034,48 71.39008344562721,51.2 67.6950417228136,51.2 65.8475208614068,48 67.6950417228136,44.8 71.39008344562721,44.8" fill="hsl(133.89801886864007,57.067051460035145%,49.927446600049734%)" stroke="hsl(133.89801886864007,57.067051460035145%,49.927446600049734%)"></polygon><polygon points="73.237604307034,80 71.39008344562721,83.2 67.6950417228136,83.2 65.8475208614068,80 67.6950417228136,76.8 71.39008344562721,76.8" fill="hsl(133.89801886864007,57.067051460035145%,49.927446600049734%)" stroke="hsl(133.89801886864007,57.067051460035145%,49.927446600049734%)"></polygon><polygon points="78.78016689125441,51.2 76.93264602984762,54.400000000000006 73.237604307034,54.400000000000006 71.39008344562721,51.2 73.237604307034,48 76.93264602984762,48" fill="hsl(133.89801886864007,57.067051460035145%,49.927446600049734%)" stroke="hsl(133.89801886864007,57.067051460035145%,49.927446600049734%)"></polygon><polygon points="84.32272947547482,54.4 82.47520861406802,57.6 78.78016689125441,57.6 76.93264602984762,54.4 78.78016689125441,51.199999999999996 82.47520861406802,51.199999999999996" fill="hsl(133.89801886864007,57.067051460035145%,49.927446600049734%)" stroke="hsl(133.89801886864007,57.067051460035145%,49.927446600049734%)"></polygon><polygon points="84.32272947547482,60.8 82.47520861406802,64 78.78016689125441,64 76.93264602984762,60.8 78.78016689125441,57.599999999999994 82.47520861406802,57.599999999999994" fill="hsl(133.89801886864007,57.067051460035145%,49.927446600049734%)" stroke="hsl(133.89801886864007,57.067051460035145%,49.927446600049734%)"></polygon><polygon points="84.32272947547482,67.2 82.47520861406802,70.4 78.78016689125441,70.4 76.93264602984762,67.2 78.78016689125441,64 82.47520861406802,64" fill="hsl(133.89801886864007,57.067051460035145%,49.927446600049734%)" stroke="hsl(133.89801886864007,57.067051460035145%,49.927446600049734%)"></polygon><polygon points="84.32272947547482,73.6 82.47520861406802,76.8 78.78016689125441,76.8 76.93264602984762,73.6 78.78016689125441,70.39999999999999 82.47520861406802,70.39999999999999" fill="hsl(133.89801886864007,57.067051460035145%,49.927446600049734%)" stroke="hsl(133.89801886864007,57.067051460035145%,49.927446600049734%)"></polygon><polygon points="45.52479138593198,64 43.67727052452517,67.2 39.98222880171157,67.2 38.134707940304764,64 39.982228801711564,60.8 43.67727052452517,60.8" fill="hsl(133.89801886864007,57.067051460035145%,49.927446600049734%)" stroke="hsl(133.89801886864007,57.067051460035145%,49.927446600049734%)"></polygon><polygon points="45.52479138593198,70.4 43.67727052452517,73.60000000000001 39.98222880171157,73.60000000000001 38.134707940304764,70.4 39.982228801711564,67.2 43.67727052452517,67.2" fill="hsl(133.89801886864007,57.067051460035145%,49.927446600049734%)" stroke="hsl(133.89801886864007,57.067051460035145%,49.927446600049734%)"></polygon><polygon points="45.52479138593198,76.8 43.67727052452517,80 39.98222880171157,80 38.134707940304764,76.8 39.982228801711564,73.6 43.67727052452517,73.6" fill="hsl(133.89801886864007,57.067051460035145%,49.927446600049734%)" stroke="hsl(133.89801886864007,57.067051460035145%,49.927446600049734%)"></polygon><polygon points="56.609916554372795,83.2 54.762395692965995,86.4 51.06735397015239,86.4 49.21983310874558,83.2 51.06735397015238,80 54.762395692965995,80" fill="hsl(133.89801886864007,57.067051460035145%,49.927446600049734%)" stroke="hsl(133.89801886864007,57.067051460035145%,49.927446600049734%)"></polygon><polygon points="62.1524791385932,41.599999999999994 60.3049582771864,44.8 56.609916554372795,44.8 54.76239569296599,41.599999999999994 56.60991655437279,38.39999999999999 60.3049582771864,38.39999999999999" fill="hsl(133.89801886864007,57.067051460035145%,49.927446600049734%)" stroke="hsl(133.89801886864007,57.067051460035145%,49.927446600049734%)"></polygon><polygon points="62.1524791385932,86.4 60.3049582771864,89.60000000000001 56.609916554372795,89.60000000000001 54.76239569296599,86.4 56.60991655437279,83.2 60.3049582771864,83.2" fill="hsl(133.89801886864007,57.067051460035145%,49.927446600049734%)" stroke="hsl(133.89801886864007,57.067051460035145%,49.927446600049734%)"></polygon><polygon points="67.6950417228136,38.4 65.8475208614068,41.6 62.1524791385932,41.6 60.304958277186394,38.4 62.15247913859319,35.199999999999996 65.8475208614068,35.199999999999996" fill="hsl(133.89801886864007,57.067051460035145%,49.927446600049734%)" stroke="hsl(133.89801886864007,57.067051460035145%,49.927446600049734%)"></polygon><polygon points="67.6950417228136,89.6 65.8475208614068,92.8 62.1524791385932,92.8 60.304958277186394,89.6 62.15247913859319,86.39999999999999 65.8475208614068,86.39999999999999" fill="hsl(133.89801886864007,57.067051460035145%,49.927446600049734%)" stroke="hsl(133.89801886864007,57.067051460035145%,49.927446600049734%)"></polygon><polygon points="73.237604307034,41.599999999999994 71.39008344562721,44.8 67.6950417228136,44.8 65.8475208614068,41.599999999999994 67.6950417228136,38.39999999999999 71.39008344562721,38.39999999999999" fill="hsl(133.89801886864007,57.067051460035145%,49.927446600049734%)" stroke="hsl(133.89801886864007,57.067051460035145%,49.927446600049734%)"></polygon><polygon points="73.237604307034,86.4 71.39008344562721,89.60000000000001 67.6950417228136,89.60000000000001 65.8475208614068,86.4 67.6950417228136,83.2 71.39008344562721,83.2" fill="hsl(133.89801886864007,57.067051460035145%,49.927446600049734%)" stroke="hsl(133.89801886864007,57.067051460035145%,49.927446600049734%)"></polygon><polygon points="78.78016689125441,83.2 76.93264602984762,86.4 73.237604307034,86.4 71.39008344562721,83.2 73.237604307034,80 76.93264602984762,80" fill="hsl(133.89801886864007,57.067051460035145%,49.927446600049734%)" stroke="hsl(133.89801886864007,57.067051460035145%,49.927446600049734%)"></polygon><polygon points="89.86529205969522,64 88.01777119828843,67.2 84.32272947547482,67.2 82.47520861406802,64 84.32272947547482,60.8 88.01777119828843,60.8" fill="hsl(133.89801886864007,57.067051460035145%,49.927446600049734%)" stroke="hsl(133.89801886864007,57.067051460035145%,49.927446600049734%)"></polygon><polygon points="89.86529205969522,70.4 88.01777119828843,73.60000000000001 84.32272947547482,73.60000000000001 82.47520861406802,70.4 84.32272947547482,67.2 88.01777119828843,67.2" fill="hsl(133.89801886864007,57.067051460035145%,49.927446600049734%)" stroke="hsl(133.89801886864007,57.067051460035145%,49.927446600049734%)"></polygon><polygon points="89.86529205969522,76.8 88.01777119828843,80 84.32272947547482,80 82.47520861406802,76.8 84.32272947547482,73.6 88.01777119828843,73.6" fill="hsl(133.89801886864007,57.067051460035145%,49.927446600049734%)" stroke="hsl(133.89801886864007,57.067051460035145%,49.927446600049734%)"></polygon><polygon points="39.98222880171157,60.8 38.134707940304764,64 34.439666217491165,64 32.59214535608436,60.8 34.43966621749116,57.599999999999994 38.134707940304764,57.599999999999994" fill="hsl(133.89801886864007,57.067051460035145%,49.927446600049734%)" stroke="hsl(133.89801886864007,57.067051460035145%,49.927446600049734%)"></polygon><polygon points="39.98222880171157,67.2 38.134707940304764,70.4 34.439666217491165,70.4 32.59214535608436,67.2 34.43966621749116,64 38.134707940304764,64" fill="hsl(133.89801886864007,57.067051460035145%,49.927446600049734%)" stroke="hsl(133.89801886864007,57.067051460035145%,49.927446600049734%)"></polygon><polygon points="45.52479138593198,44.8 43.67727052452517,48 39.98222880171157,48 38.134707940304764,44.8 39.982228801711564,41.599999999999994 43.67727052452517,41.599999999999994" fill="hsl(133.89801886864007,57.067051460035145%,49.927446600049734%)" stroke="hsl(133.89801886864007,57.067051460035145%,49.927446600049734%)"></polygon><polygon points="45.52479138593198,83.2 43.67727052452517,86.4 39.98222880171157,86.4 38.134707940304764,83.2 39.982228801711564,80 43.67727052452517,80" fill="hsl(133.89801886864007,57.067051460035145%,49.927446600049734%)" stroke="hsl(133.89801886864007,57.067051460035145%,49.927446600049734%)"></polygon><polygon points="51.06735397015238,86.4 49.219833108745576,89.60000000000001 45.52479138593198,89.60000000000001 43.67727052452517,86.4 45.52479138593197,83.2 49.219833108745576,83.2" fill="hsl(133.89801886864007,57.067051460035145%,49.927446600049734%)" stroke="hsl(133.89801886864007,57.067051460035145%,49.927446600049734%)"></polygon><polygon points="56.609916554372795,38.4 54.762395692965995,41.6 51.06735397015239,41.6 49.21983310874558,38.4 51.06735397015238,35.199999999999996 54.762395692965995,35.199999999999996" fill="hsl(133.89801886864007,57.067051460035145%,49.927446600049734%)" stroke="hsl(133.89801886864007,57.067051460035145%,49.927446600049734%)"></polygon><polygon points="62.1524791385932,35.2 60.3049582771864,38.400000000000006 56.609916554372795,38.400000000000006 54.76239569296599,35.2 56.60991655437279,32 60.3049582771864,32" fill="hsl(133.89801886864007,57.067051460035145%,49.927446600049734%)" stroke="hsl(133.89801886864007,57.067051460035145%,49.927446600049734%)"></polygon><polygon points="62.1524791385932,92.8 60.3049582771864,96 56.609916554372795,96 54.76239569296599,92.8 56.60991655437279,89.6 60.3049582771864,89.6" fill="hsl(133.89801886864007,57.067051460035145%,49.927446600049734%)" stroke="hsl(133.89801886864007,57.067051460035145%,49.927446600049734%)"></polygon><polygon points="73.237604307034,35.2 71.39008344562721,38.400000000000006 67.6950417228136,38.400000000000006 65.8475208614068,35.2 67.6950417228136,32 71.39008344562721,32" fill="hsl(133.89801886864007,57.067051460035145%,49.927446600049734%)" stroke="hsl(133.89801886864007,57.067051460035145%,49.927446600049734%)"></polygon><polygon points="73.237604307034,92.8 71.39008344562721,96 67.6950417228136,96 65.8475208614068,92.8 67.6950417228136,89.6 71.39008344562721,89.6" fill="hsl(133.89801886864007,57.067051460035145%,49.927446600049734%)" stroke="hsl(133.89801886864007,57.067051460035145%,49.927446600049734%)"></polygon><polygon points="78.78016689125441,38.4 76.93264602984762,41.6 73.237604307034,41.6 71.39008344562721,38.4 73.237604307034,35.199999999999996 76.93264602984762,35.199999999999996" fill="hsl(133.89801886864007,57.067051460035145%,49.927446600049734%)" stroke="hsl(133.89801886864007,57.067051460035145%,49.927446600049734%)"></polygon><polygon points="84.32272947547482,86.4 82.47520861406802,89.60000000000001 78.78016689125441,89.60000000000001 76.93264602984762,86.4 78.78016689125441,83.2 82.47520861406802,83.2" fill="hsl(133.89801886864007,57.067051460035145%,49.927446600049734%)" stroke="hsl(133.89801886864007,57.067051460035145%,49.927446600049734%)"></polygon><polygon points="89.86529205969522,44.8 88.01777119828843,48 84.32272947547482,48 82.47520861406802,44.8 84.32272947547482,41.599999999999994 88.01777119828843,41.599999999999994" fill="hsl(133.89801886864007,57.067051460035145%,49.927446600049734%)" stroke="hsl(133.89801886864007,57.067051460035145%,49.927446600049734%)"></polygon><polygon points="89.86529205969522,83.2 88.01777119828843,86.4 84.32272947547482,86.4 82.47520861406802,83.2 84.32272947547482,80 88.01777119828843,80" fill="hsl(133.89801886864007,57.067051460035145%,49.927446600049734%)" stroke="hsl(133.89801886864007,57.067051460035145%,49.927446600049734%)"></polygon><polygon points="95.40785464391563,60.8 93.56033378250883,64 89.86529205969522,64 88.01777119828843,60.8 89.86529205969522,57.599999999999994 93.56033378250883,57.599999999999994" fill="hsl(133.89801886864007,57.067051460035145%,49.927446600049734%)" stroke="hsl(133.89801886864007,57.067051460035145%,49.927446600049734%)"></polygon><polygon points="95.40785464391563,67.2 93.56033378250883,70.4 89.86529205969522,70.4 88.01777119828843,67.2 89.86529205969522,64 93.56033378250883,64" fill="hsl(133.89801886864007,57.067051460035145%,49.927446600049734%)" stroke="hsl(133.89801886864007,57.067051460035145%,49.927446600049734%)"></polygon><polygon points="34.43966621749116,51.2 32.59214535608436,54.400000000000006 28.89710363327075,54.400000000000006 27.049582771863946,51.2 28.89710363327075,48 32.59214535608436,48" fill="hsl(133.89801886864007,57.067051460035145%,49.927446600049734%)" stroke="hsl(133.89801886864007,57.067051460035145%,49.927446600049734%)"></polygon><polygon points="34.43966621749116,64 32.59214535608436,67.2 28.89710363327075,67.2 27.049582771863946,64 28.89710363327075,60.8 32.59214535608436,60.8" fill="hsl(133.89801886864007,57.067051460035145%,49.927446600049734%)" stroke="hsl(133.89801886864007,57.067051460035145%,49.927446600049734%)"></polygon><polygon points="34.43966621749116,70.4 32.59214535608436,73.60000000000001 28.89710363327075,73.60000000000001 27.049582771863946,70.4 28.89710363327075,67.2 32.59214535608436,67.2" fill="hsl(133.89801886864007,57.067051460035145%,49.927446600049734%)" stroke="hsl(133.89801886864007,57.067051460035145%,49.927446600049734%)"></polygon><polygon points="34.43966621749116,76.8 32.59214535608436,80 28.89710363327075,80 27.049582771863946,76.8 28.89710363327075,73.6 32.59214535608436,73.6" fill="hsl(133.89801886864007,57.067051460035145%,49.927446600049734%)" stroke="hsl(133.89801886864007,57.067051460035145%,49.927446600049734%)"></polygon><polygon points="34.43966621749116,83.2 32.59214535608436,86.4 28.89710363327075,86.4 27.049582771863946,83.2 28.89710363327075,80 32.59214535608436,80" fill="hsl(133.89801886864007,57.067051460035145%,49.927446600049734%)" stroke="hsl(133.89801886864007,57.067051460035145%,49.927446600049734%)"></polygon><polygon points="39.98222880171157,41.599999999999994 38.134707940304764,44.8 34.439666217491165,44.8 32.59214535608436,41.599999999999994 34.43966621749116,38.39999999999999 38.134707940304764,38.39999999999999" fill="hsl(133.89801886864007,57.067051460035145%,49.927446600049734%)" stroke="hsl(133.89801886864007,57.067051460035145%,49.927446600049734%)"></polygon><polygon points="45.52479138593198,38.4 43.67727052452517,41.6 39.98222880171157,41.6 38.134707940304764,38.4 39.982228801711564,35.199999999999996 43.67727052452517,35.199999999999996" fill="hsl(133.89801886864007,57.067051460035145%,49.927446600049734%)" stroke="hsl(133.89801886864007,57.067051460035145%,49.927446600049734%)"></polygon><polygon points="45.52479138593198,89.6 43.67727052452517,92.8 39.98222880171157,92.8 38.134707940304764,89.6 39.982228801711564,86.39999999999999 43.67727052452517,86.39999999999999" fill="hsl(133.89801886864007,57.067051460035145%,49.927446600049734%)" stroke="hsl(133.89801886864007,57.067051460035145%,49.927446600049734%)"></polygon><polygon points="51.06735397015238,35.2 49.219833108745576,38.400000000000006 45.52479138593198,38.400000000000006 43.67727052452517,35.2 45.52479138593197,32 49.219833108745576,32" fill="hsl(133.89801886864007,57.067051460035145%,49.927446600049734%)" stroke="hsl(133.89801886864007,57.067051460035145%,49.927446600049734%)"></polygon><polygon points="56.609916554372795,96 54.762395692965995,99.2 51.06735397015239,99.2 49.21983310874558,96 51.06735397015238,92.8 54.762395692965995,92.8" fill="hsl(133.89801886864007,57.067051460035145%,49.927446600049734%)" stroke="hsl(133.89801886864007,57.067051460035145%,49.927446600049734%)"></polygon><polygon points="62.1524791385932,99.2 60.3049582771864,102.4 56.609916554372795,102.4 54.76239569296599,99.2 56.60991655437279,96 60.3049582771864,96" fill="hsl(133.89801886864007,57.067051460035145%,49.927446600049734%)" stroke="hsl(133.89801886864007,57.067051460035145%,49.927446600049734%)"></polygon><polygon points="73.237604307034,99.2 71.39008344562721,102.4 67.6950417228136,102.4 65.8475208614068,99.2 67.6950417228136,96 71.39008344562721,96" fill="hsl(133.89801886864007,57.067051460035145%,49.927446600049734%)" stroke="hsl(133.89801886864007,57.067051460035145%,49.927446600049734%)"></polygon><polygon points="78.78016689125441,96 76.93264602984762,99.2 73.237604307034,99.2 71.39008344562721,96 73.237604307034,92.8 76.93264602984762,92.8" fill="hsl(133.89801886864007,57.067051460035145%,49.927446600049734%)" stroke="hsl(133.89801886864007,57.067051460035145%,49.927446600049734%)"></polygon><polygon points="84.32272947547482,35.2 82.47520861406802,38.400000000000006 78.78016689125441,38.400000000000006 76.93264602984762,35.2 78.78016689125441,32 82.47520861406802,32" fill="hsl(133.89801886864007,57.067051460035145%,49.927446600049734%)" stroke="hsl(133.89801886864007,57.067051460035145%,49.927446600049734%)"></polygon><polygon points="89.86529205969522,38.4 88.01777119828843,41.6 84.32272947547482,41.6 82.47520861406802,38.4 84.32272947547482,35.199999999999996 88.01777119828843,35.199999999999996" fill="hsl(133.89801886864007,57.067051460035145%,49.927446600049734%)" stroke="hsl(133.89801886864007,57.067051460035145%,49.927446600049734%)"></polygon><polygon points="89.86529205969522,89.6 88.01777119828843,92.8 84.32272947547482,92.8 82.47520861406802,89.6 84.32272947547482,86.39999999999999 88.01777119828843,86.39999999999999" fill="hsl(133.89801886864007,57.067051460035145%,49.927446600049734%)" stroke="hsl(133.89801886864007,57.067051460035145%,49.927446600049734%)"></polygon><polygon points="95.40785464391563,41.599999999999994 93.56033378250883,44.8 89.86529205969522,44.8 88.01777119828843,41.599999999999994 89.86529205969522,38.39999999999999 93.56033378250883,38.39999999999999" fill="hsl(133.89801886864007,57.067051460035145%,49.927446600049734%)" stroke="hsl(133.89801886864007,57.067051460035145%,49.927446600049734%)"></polygon><polygon points="100.95041722813605,51.2 99.10289636672925,54.400000000000006 95.40785464391564,54.400000000000006 93.56033378250885,51.2 95.40785464391564,48 99.10289636672925,48" fill="hsl(133.89801886864007,57.067051460035145%,49.927446600049734%)" stroke="hsl(133.89801886864007,57.067051460035145%,49.927446600049734%)"></polygon><polygon points="100.95041722813605,64 99.10289636672925,67.2 95.40785464391564,67.2 93.56033378250885,64 95.40785464391564,60.8 99.10289636672925,60.8" fill="hsl(133.89801886864007,57.067051460035145%,49.927446600049734%)" stroke="hsl(133.89801886864007,57.067051460035145%,49.927446600049734%)"></polygon><polygon points="100.95041722813605,70.4 99.10289636672925,73.60000000000001 95.40785464391564,73.60000000000001 93.56033378250885,70.4 95.40785464391564,67.2 99.10289636672925,67.2" fill="hsl(133.89801886864007,57.067051460035145%,49.927446600049734%)" stroke="hsl(133.89801886864007,57.067051460035145%,49.927446600049734%)"></polygon><polygon points="100.95041722813605,76.8 99.10289636672925,80 95.40785464391564,80 93.56033378250885,76.8 95.40785464391564,73.6 99.10289636672925,73.6" fill="hsl(133.89801886864007,57.067051460035145%,49.927446600049734%)" stroke="hsl(133.89801886864007,57.067051460035145%,49.927446600049734%)"></polygon><polygon points="100.95041722813605,83.2 99.10289636672925,86.4 95.40785464391564,86.4 93.56033378250885,83.2 95.40785464391564,80 99.10289636672925,80" fill="hsl(133.89801886864007,57.067051460035145%,49.927446600049734%)" stroke="hsl(133.89801886864007,57.067051460035145%,49.927446600049734%)"></polygon><polygon points="28.897103633270753,41.599999999999994 27.04958277186395,44.8 23.354541049050344,44.8 21.50702018764354,41.599999999999994 23.354541049050344,38.39999999999999 27.04958277186395,38.39999999999999" fill="hsl(133.89801886864007,57.067051460035145%,49.927446600049734%)" stroke="hsl(133.89801886864007,57.067051460035145%,49.927446600049734%)"></polygon><polygon points="28.897103633270753,48 27.04958277186395,51.2 23.354541049050344,51.2 21.50702018764354,48 23.354541049050344,44.8 27.04958277186395,44.8" fill="hsl(133.89801886864007,57.067051460035145%,49.927446600049734%)" stroke="hsl(133.89801886864007,57.067051460035145%,49.927446600049734%)"></polygon><polygon points="28.897103633270753,54.4 27.04958277186395,57.6 23.354541049050344,57.6 21.50702018764354,54.4 23.354541049050344,51.199999999999996 27.04958277186395,51.199999999999996" fill="hsl(133.89801886864007,57.067051460035145%,49.927446600049734%)" stroke="hsl(133.89801886864007,57.067051460035145%,49.927446600049734%)"></polygon><polygon points="28.897103633270753,67.2 27.04958277186395,70.4 23.354541049050344,70.4 21.50702018764354,67.2 23.354541049050344,64 27.04958277186395,64" fill="hsl(133.89801886864007,57.067051460035145%,49.927446600049734%)" stroke="hsl(133.89801886864007,57.067051460035145%,49.927446600049734%)"></polygon><polygon points="28.897103633270753,73.6 27.04958277186395,76.8 23.354541049050344,76.8 21.50702018764354,73.6 23.354541049050344,70.39999999999999 27.04958277186395,70.39999999999999" fill="hsl(133.89801886864007,57.067051460035145%,49.927446600049734%)" stroke="hsl(133.89801886864007,57.067051460035145%,49.927446600049734%)"></polygon><polygon points="28.897103633270753,80 27.04958277186395,83.2 23.354541049050344,83.2 21.50702018764354,80 23.354541049050344,76.8 27.04958277186395,76.8" fill="hsl(133.89801886864007,57.067051460035145%,49.927446600049734%)" stroke="hsl(133.89801886864007,57.067051460035145%,49.927446600049734%)"></polygon><polygon points="28.897103633270753,86.4 27.04958277186395,89.60000000000001 23.354541049050344,89.60000000000001 21.50702018764354,86.4 23.354541049050344,83.2 27.04958277186395,83.2" fill="hsl(133.89801886864007,57.067051460035145%,49.927446600049734%)" stroke="hsl(133.89801886864007,57.067051460035145%,49.927446600049734%)"></polygon><polygon points="34.43966621749116,89.6 32.59214535608436,92.8 28.89710363327075,92.8 27.049582771863946,89.6 28.89710363327075,86.39999999999999 32.59214535608436,86.39999999999999" fill="hsl(133.89801886864007,57.067051460035145%,49.927446600049734%)" stroke="hsl(133.89801886864007,57.067051460035145%,49.927446600049734%)"></polygon><polygon points="39.98222880171157,35.2 38.134707940304764,38.400000000000006 34.439666217491165,38.400000000000006 32.59214535608436,35.2 34.43966621749116,32 38.134707940304764,32" fill="hsl(133.89801886864007,57.067051460035145%,49.927446600049734%)" stroke="hsl(133.89801886864007,57.067051460035145%,49.927446600049734%)"></polygon><polygon points="45.52479138593198,96 43.67727052452517,99.2 39.98222880171157,99.2 38.134707940304764,96 39.982228801711564,92.8 43.67727052452517,92.8" fill="hsl(133.89801886864007,57.067051460035145%,49.927446600049734%)" stroke="hsl(133.89801886864007,57.067051460035145%,49.927446600049734%)"></polygon><polygon points="51.06735397015238,28.799999999999997 49.219833108745576,31.999999999999996 45.52479138593198,31.999999999999996 43.67727052452517,28.799999999999997 45.52479138593197,25.599999999999998 49.219833108745576,25.599999999999998" fill="hsl(133.89801886864007,57.067051460035145%,49.927446600049734%)" stroke="hsl(133.89801886864007,57.067051460035145%,49.927446600049734%)"></polygon><polygon points="51.06735397015238,99.2 49.219833108745576,102.4 45.52479138593198,102.4 43.67727052452517,99.2 45.52479138593197,96 49.219833108745576,96" fill="hsl(133.89801886864007,57.067051460035145%,49.927446600049734%)" stroke="hsl(133.89801886864007,57.067051460035145%,49.927446600049734%)"></polygon><polygon points="56.609916554372795,25.599999999999994 54.762395692965995,28.799999999999994 51.06735397015239,28.799999999999994 49.21983310874558,25.599999999999994 51.06735397015238,22.399999999999995 54.762395692965995,22.399999999999995" fill="hsl(133.89801886864007,57.067051460035145%,49.927446600049734%)" stroke="hsl(133.89801886864007,57.067051460035145%,49.927446600049734%)"></polygon><polygon points="67.6950417228136,19.199999999999996 65.8475208614068,22.399999999999995 62.1524791385932,22.399999999999995 60.304958277186394,19.199999999999996 62.15247913859319,15.999999999999996 65.8475208614068,15.999999999999996" fill="hsl(133.89801886864007,57.067051460035145%,49.927446600049734%)" stroke="hsl(133.89801886864007,57.067051460035145%,49.927446600049734%)"></polygon><polygon points="78.78016689125441,25.599999999999994 76.93264602984762,28.799999999999994 73.237604307034,28.799999999999994 71.39008344562721,25.599999999999994 73.237604307034,22.399999999999995 76.93264602984762,22.399999999999995" fill="hsl(133.89801886864007,57.067051460035145%,49.927446600049734%)" stroke="hsl(133.89801886864007,57.067051460035145%,49.927446600049734%)"></polygon><polygon points="84.32272947547482,28.799999999999997 82.47520861406802,31.999999999999996 78.78016689125441,31.999999999999996 76.93264602984762,28.799999999999997 78.78016689125441,25.599999999999998 82.47520861406802,25.599999999999998" fill="hsl(133.89801886864007,57.067051460035145%,49.927446600049734%)" stroke="hsl(133.89801886864007,57.067051460035145%,49.927446600049734%)"></polygon><polygon points="84.32272947547482,99.2 82.47520861406802,102.4 78.78016689125441,102.4 76.93264602984762,99.2 78.78016689125441,96 82.47520861406802,96" fill="hsl(133.89801886864007,57.067051460035145%,49.927446600049734%)" stroke="hsl(133.89801886864007,57.067051460035145%,49.927446600049734%)"></polygon><polygon points="89.86529205969522,96 88.01777119828843,99.2 84.32272947547482,99.2 82.47520861406802,96 84.32272947547482,92.8 88.01777119828843,92.8" fill="hsl(133.89801886864007,57.067051460035145%,49.927446600049734%)" stroke="hsl(133.89801886864007,57.067051460035145%,49.927446600049734%)"></polygon><polygon points="95.40785464391563,35.2 93.56033378250883,38.400000000000006 89.86529205969522,38.400000000000006 88.01777119828843,35.2 89.86529205969522,32 93.56033378250883,32" fill="hsl(133.89801886864007,57.067051460035145%,49.927446600049734%)" stroke="hsl(133.89801886864007,57.067051460035145%,49.927446600049734%)"></polygon><polygon points="100.95041722813605,89.6 99.10289636672925,92.8 95.40785464391564,92.8 93.56033378250885,89.6 95.40785464391564,86.39999999999999 99.10289636672925,86.39999999999999" fill="hsl(133.89801886864007,57.067051460035145%,49.927446600049734%)" stroke="hsl(133.89801886864007,57.067051460035145%,49.927446600049734%)"></polygon><polygon points="106.49297981235645,41.599999999999994 104.64545895094966,44.8 100.95041722813605,44.8 99.10289636672925,41.599999999999994 100.95041722813605,38.39999999999999 104.64545895094966,38.39999999999999" fill="hsl(133.89801886864007,57.067051460035145%,49.927446600049734%)" stroke="hsl(133.89801886864007,57.067051460035145%,49.927446600049734%)"></polygon><polygon points="106.49297981235645,48 104.64545895094966,51.2 100.95041722813605,51.2 99.10289636672925,48 100.95041722813605,44.8 104.64545895094966,44.8" fill="hsl(133.89801886864007,57.067051460035145%,49.927446600049734%)" stroke="hsl(133.89801886864007,57.067051460035145%,49.927446600049734%)"></polygon><polygon points="106.49297981235645,54.4 104.64545895094966,57.6 100.95041722813605,57.6 99.10289636672925,54.4 100.95041722813605,51.199999999999996 104.64545895094966,51.199999999999996" fill="hsl(133.89801886864007,57.067051460035145%,49.927446600049734%)" stroke="hsl(133.89801886864007,57.067051460035145%,49.927446600049734%)"></polygon><polygon points="106.49297981235645,67.2 104.64545895094966,70.4 100.95041722813605,70.4 99.10289636672925,67.2 100.95041722813605,64 104.64545895094966,64" fill="hsl(133.89801886864007,57.067051460035145%,49.927446600049734%)" stroke="hsl(133.89801886864007,57.067051460035145%,49.927446600049734%)"></polygon><polygon points="106.49297981235645,73.6 104.64545895094966,76.8 100.95041722813605,76.8 99.10289636672925,73.6 100.95041722813605,70.39999999999999 104.64545895094966,70.39999999999999" fill="hsl(133.89801886864007,57.067051460035145%,49.927446600049734%)" stroke="hsl(133.89801886864007,57.067051460035145%,49.927446600049734%)"></polygon><polygon points="106.49297981235645,80 104.64545895094966,83.2 100.95041722813605,83.2 99.10289636672925,80 100.95041722813605,76.8 104.64545895094966,76.8" fill="hsl(133.89801886864007,57.067051460035145%,49.927446600049734%)" stroke="hsl(133.89801886864007,57.067051460035145%,49.927446600049734%)"></polygon><polygon points="106.49297981235645,86.4 104.64545895094966,89.60000000000001 100.95041722813605,89.60000000000001 99.10289636672925,86.4 100.95041722813605,83.2 104.64545895094966,83.2" fill="hsl(133.89801886864007,57.067051460035145%,49.927446600049734%)" stroke="hsl(133.89801886864007,57.067051460035145%,49.927446600049734%)"></polygon><polygon points="23.354541049050347,57.6 21.507020187643544,60.800000000000004 17.811978464829938,60.800000000000004 15.964457603423135,57.6 17.811978464829938,54.4 21.507020187643544,54.4" fill="hsl(133.89801886864007,57.067051460035145%,49.927446600049734%)" stroke="hsl(133.89801886864007,57.067051460035145%,49.927446600049734%)"></polygon><polygon points="23.354541049050347,64 21.507020187643544,67.2 17.811978464829938,67.2 15.964457603423135,64 17.811978464829938,60.8 21.507020187643544,60.8" fill="hsl(133.89801886864007,57.067051460035145%,49.927446600049734%)" stroke="hsl(133.89801886864007,57.067051460035145%,49.927446600049734%)"></polygon><polygon points="23.354541049050347,70.4 21.507020187643544,73.60000000000001 17.811978464829938,73.60000000000001 15.964457603423135,70.4 17.811978464829938,67.2 21.507020187643544,67.2" fill="hsl(133.89801886864007,57.067051460035145%,49.927446600049734%)" stroke="hsl(133.89801886864007,57.067051460035145%,49.927446600049734%)"></polygon><polygon points="23.354541049050347,76.8 21.507020187643544,80 17.811978464829938,80 15.964457603423135,76.8 17.811978464829938,73.6 21.507020187643544,73.6" fill="hsl(133.89801886864007,57.067051460035145%,49.927446600049734%)" stroke="hsl(133.89801886864007,57.067051460035145%,49.927446600049734%)"></polygon><polygon points="23.354541049050347,83.2 21.507020187643544,86.4 17.811978464829938,86.4 15.964457603423135,83.2 17.811978464829938,80 21.507020187643544,80" fill="hsl(133.89801886864007,57.067051460035145%,49.927446600049734%)" stroke="hsl(133.89801886864007,57.067051460035145%,49.927446600049734%)"></polygon><polygon points="23.354541049050347,89.6 21.507020187643544,92.8 17.811978464829938,92.8 15.964457603423135,89.6 17.811978464829938,86.39999999999999 21.507020187643544,86.39999999999999" fill="hsl(133.89801886864007,57.067051460035145%,49.927446600049734%)" stroke="hsl(133.89801886864007,57.067051460035145%,49.927446600049734%)"></polygon><polygon points="28.897103633270753,92.8 27.04958277186395,96 23.354541049050344,96 21.50702018764354,92.8 23.354541049050344,89.6 27.04958277186395,89.6" fill="hsl(133.89801886864007,57.067051460035145%,49.927446600049734%)" stroke="hsl(133.89801886864007,57.067051460035145%,49.927446600049734%)"></polygon><polygon points="34.43966621749116,96 32.59214535608436,99.2 28.89710363327075,99.2 27.049582771863946,96 28.89710363327075,92.8 32.59214535608436,92.8" fill="hsl(133.89801886864007,57.067051460035145%,49.927446600049734%)" stroke="hsl(133.89801886864007,57.067051460035145%,49.927446600049734%)"></polygon><polygon points="45.52479138593198,25.599999999999994 43.67727052452517,28.799999999999994 39.98222880171157,28.799999999999994 38.134707940304764,25.599999999999994 39.982228801711564,22.399999999999995 43.67727052452517,22.399999999999995" fill="hsl(133.89801886864007,57.067051460035145%,49.927446600049734%)" stroke="hsl(133.89801886864007,57.067051460035145%,49.927446600049734%)"></polygon><polygon points="51.06735397015238,105.6 49.219833108745576,108.8 45.52479138593198,108.8 43.67727052452517,105.6 45.52479138593197,102.39999999999999 49.219833108745576,102.39999999999999" fill="hsl(133.89801886864007,57.067051460035145%,49.927446600049734%)" stroke="hsl(133.89801886864007,57.067051460035145%,49.927446600049734%)"></polygon><polygon points="56.609916554372795,108.80000000000001 54.762395692965995,112.00000000000001 51.06735397015239,112.00000000000001 49.21983310874558,108.80000000000001 51.06735397015238,105.60000000000001 54.762395692965995,105.60000000000001" fill="hsl(133.89801886864007,57.067051460035145%,49.927446600049734%)" stroke="hsl(133.89801886864007,57.067051460035145%,49.927446600049734%)"></polygon><polygon points="62.1524791385932,16 60.3049582771864,19.2 56.609916554372795,19.2 54.76239569296599,16 56.60991655437279,12.8 60.3049582771864,12.8" fill="hsl(133.89801886864007,57.067051460035145%,49.927446600049734%)" stroke="hsl(133.89801886864007,57.067051460035145%,49.927446600049734%)"></polygon><polygon points="73.237604307034,16 71.39008344562721,19.2 67.6950417228136,19.2 65.8475208614068,16 67.6950417228136,12.8 71.39008344562721,12.8" fill="hsl(133.89801886864007,57.067051460035145%,49.927446600049734%)" stroke="hsl(133.89801886864007,57.067051460035145%,49.927446600049734%)"></polygon><polygon points="78.78016689125441,108.80000000000001 76.93264602984762,112.00000000000001 73.237604307034,112.00000000000001 71.39008344562721,108.80000000000001 73.237604307034,105.60000000000001 76.93264602984762,105.60000000000001" fill="hsl(133.89801886864007,57.067051460035145%,49.927446600049734%)" stroke="hsl(133.89801886864007,57.067051460035145%,49.927446600049734%)"></polygon><polygon points="84.32272947547482,105.6 82.47520861406802,108.8 78.78016689125441,108.8 76.93264602984762,105.6 78.78016689125441,102.39999999999999 82.47520861406802,102.39999999999999" fill="hsl(133.89801886864007,57.067051460035145%,49.927446600049734%)" stroke="hsl(133.89801886864007,57.067051460035145%,49.927446600049734%)"></polygon><polygon points="89.86529205969522,25.599999999999994 88.01777119828843,28.799999999999994 84.32272947547482,28.799999999999994 82.47520861406802,25.599999999999994 84.32272947547482,22.399999999999995 88.01777119828843,22.399999999999995" fill="hsl(133.89801886864007,57.067051460035145%,49.927446600049734%)" stroke="hsl(133.89801886864007,57.067051460035145%,49.927446600049734%)"></polygon><polygon points="100.95041722813605,96 99.10289636672925,99.2 95.40785464391564,99.2 93.56033378250885,96 95.40785464391564,92.8 99.10289636672925,92.8" fill="hsl(133.89801886864007,57.067051460035145%,49.927446600049734%)" stroke="hsl(133.89801886864007,57.067051460035145%,49.927446600049734%)"></polygon><polygon points="106.49297981235645,92.8 104.64545895094966,96 100.95041722813605,96 99.10289636672925,92.8 100.95041722813605,89.6 104.64545895094966,89.6" fill="hsl(133.89801886864007,57.067051460035145%,49.927446600049734%)" stroke="hsl(133.89801886864007,57.067051460035145%,49.927446600049734%)"></polygon><polygon points="112.03554239657686,57.6 110.18802153517007,60.800000000000004 106.49297981235645,60.800000000000004 104.64545895094966,57.6 106.49297981235645,54.4 110.18802153517007,54.4" fill="hsl(133.89801886864007,57.067051460035145%,49.927446600049734%)" stroke="hsl(133.89801886864007,57.067051460035145%,49.927446600049734%)"></polygon><polygon points="112.03554239657686,64 110.18802153517007,67.2 106.49297981235645,67.2 104.64545895094966,64 106.49297981235645,60.8 110.18802153517007,60.8" fill="hsl(133.89801886864007,57.067051460035145%,49.927446600049734%)" stroke="hsl(133.89801886864007,57.067051460035145%,49.927446600049734%)"></polygon><polygon points="112.03554239657686,70.4 110.18802153517007,73.60000000000001 106.49297981235645,73.60000000000001 104.64545895094966,70.4 106.49297981235645,67.2 110.18802153517007,67.2" fill="hsl(133.89801886864007,57.067051460035145%,49.927446600049734%)" stroke="hsl(133.89801886864007,57.067051460035145%,49.927446600049734%)"></polygon><polygon points="112.03554239657686,76.8 110.18802153517007,80 106.49297981235645,80 104.64545895094966,76.8 106.49297981235645,73.6 110.18802153517007,73.6" fill="hsl(133.89801886864007,57.067051460035145%,49.927446600049734%)" stroke="hsl(133.89801886864007,57.067051460035145%,49.927446600049734%)"></polygon><polygon points="112.03554239657686,83.2 110.18802153517007,86.4 106.49297981235645,86.4 104.64545895094966,83.2 106.49297981235645,80 110.18802153517007,80" fill="hsl(133.89801886864007,57.067051460035145%,49.927446600049734%)" stroke="hsl(133.89801886864007,57.067051460035145%,49.927446600049734%)"></polygon><polygon points="112.03554239657686,89.6 110.18802153517007,92.8 106.49297981235645,92.8 104.64545895094966,89.6 106.49297981235645,86.39999999999999 110.18802153517007,86.39999999999999" fill="hsl(133.89801886864007,57.067051460035145%,49.927446600049734%)" stroke="hsl(133.89801886864007,57.067051460035145%,49.927446600049734%)"></polygon><polygon points="17.81197846482994,41.599999999999994 15.964457603423138,44.8 12.269415880609534,44.8 10.42189501920273,41.599999999999994 12.26941588060953,38.39999999999999 15.964457603423138,38.39999999999999" fill="hsl(133.89801886864007,57.067051460035145%,49.927446600049734%)" stroke="hsl(133.89801886864007,57.067051460035145%,49.927446600049734%)"></polygon><polygon points="17.81197846482994,73.6 15.964457603423138,76.8 12.269415880609534,76.8 10.42189501920273,73.6 12.26941588060953,70.39999999999999 15.964457603423138,70.39999999999999" fill="hsl(133.89801886864007,57.067051460035145%,49.927446600049734%)" stroke="hsl(133.89801886864007,57.067051460035145%,49.927446600049734%)"></polygon><polygon points="17.81197846482994,80 15.964457603423138,83.2 12.269415880609534,83.2 10.42189501920273,80 12.26941588060953,76.8 15.964457603423138,76.8" fill="hsl(133.89801886864007,57.067051460035145%,49.927446600049734%)" stroke="hsl(133.89801886864007,57.067051460035145%,49.927446600049734%)"></polygon><polygon points="17.81197846482994,92.8 15.964457603423138,96 12.269415880609534,96 10.42189501920273,92.8 12.26941588060953,89.6 15.964457603423138,89.6" fill="hsl(133.89801886864007,57.067051460035145%,49.927446600049734%)" stroke="hsl(133.89801886864007,57.067051460035145%,49.927446600049734%)"></polygon><polygon points="23.354541049050347,32 21.507020187643544,35.2 17.811978464829938,35.2 15.964457603423135,32 17.811978464829938,28.8 21.507020187643544,28.8" fill="hsl(133.89801886864007,57.067051460035145%,49.927446600049734%)" stroke="hsl(133.89801886864007,57.067051460035145%,49.927446600049734%)"></polygon><polygon points="45.52479138593198,19.199999999999996 43.67727052452517,22.399999999999995 39.98222880171157,22.399999999999995 38.134707940304764,19.199999999999996 39.982228801711564,15.999999999999996 43.67727052452517,15.999999999999996" fill="hsl(133.89801886864007,57.067051460035145%,49.927446600049734%)" stroke="hsl(133.89801886864007,57.067051460035145%,49.927446600049734%)"></polygon><polygon points="51.06735397015238,16 49.219833108745576,19.2 45.52479138593198,19.2 43.67727052452517,16 45.52479138593197,12.8 49.219833108745576,12.8" fill="hsl(133.89801886864007,57.067051460035145%,49.927446600049734%)" stroke="hsl(133.89801886864007,57.067051460035145%,49.927446600049734%)"></polygon><polygon points="56.609916554372795,115.2 54.762395692965995,118.4 51.06735397015239,118.4 49.21983310874558,115.2 51.06735397015238,112 54.762395692965995,112" fill="hsl(133.89801886864007,57.067051460035145%,49.927446600049734%)" stroke="hsl(133.89801886864007,57.067051460035145%,49.927446600049734%)"></polygon><polygon points="62.1524791385932,9.599999999999994 60.3049582771864,12.799999999999994 56.609916554372795,12.799999999999995 54.76239569296599,9.599999999999994 56.60991655437279,6.399999999999995 60.3049582771864,6.399999999999994" fill="hsl(133.89801886864007,57.067051460035145%,49.927446600049734%)" stroke="hsl(133.89801886864007,57.067051460035145%,49.927446600049734%)"></polygon><polygon points="67.6950417228136,6.399999999999999 65.8475208614068,9.599999999999998 62.1524791385932,9.6 60.304958277186394,6.3999999999999995 62.15247913859319,3.199999999999999 65.8475208614068,3.1999999999999984" fill="hsl(133.89801886864007,57.067051460035145%,49.927446600049734%)" stroke="hsl(133.89801886864007,57.067051460035145%,49.927446600049734%)"></polygon><polygon points="73.237604307034,9.599999999999994 71.39008344562721,12.799999999999994 67.6950417228136,12.799999999999995 65.8475208614068,9.599999999999994 67.6950417228136,6.399999999999995 71.39008344562721,6.399999999999994" fill="hsl(133.89801886864007,57.067051460035145%,49.927446600049734%)" stroke="hsl(133.89801886864007,57.067051460035145%,49.927446600049734%)"></polygon><polygon points="78.78016689125441,115.2 76.93264602984762,118.4 73.237604307034,118.4 71.39008344562721,115.2 73.237604307034,112 76.93264602984762,112" fill="hsl(133.89801886864007,57.067051460035145%,49.927446600049734%)" stroke="hsl(133.89801886864007,57.067051460035145%,49.927446600049734%)"></polygon><polygon points="84.32272947547482,16 82.47520861406802,19.2 78.78016689125441,19.2 76.93264602984762,16 78.78016689125441,12.8 82.47520861406802,12.8" fill="hsl(133.89801886864007,57.067051460035145%,49.927446600049734%)" stroke="hsl(133.89801886864007,57.067051460035145%,49.927446600049734%)"></polygon><polygon points="89.86529205969522,19.199999999999996 88.01777119828843,22.399999999999995 84.32272947547482,22.399999999999995 82.47520861406802,19.199999999999996 84.32272947547482,15.999999999999996 88.01777119828843,15.999999999999996" fill="hsl(133.89801886864007,57.067051460035145%,49.927446600049734%)" stroke="hsl(133.89801886864007,57.067051460035145%,49.927446600049734%)"></polygon><polygon points="112.03554239657686,32 110.18802153517007,35.2 106.49297981235645,35.2 104.64545895094966,32 106.49297981235645,28.8 110.18802153517007,28.8" fill="hsl(133.89801886864007,57.067051460035145%,49.927446600049734%)" stroke="hsl(133.89801886864007,57.067051460035145%,49.927446600049734%)"></polygon><polygon points="117.57810498079726,41.599999999999994 115.73058411939047,44.8 112.03554239657686,44.8 110.18802153517007,41.599999999999994 112.03554239657686,38.39999999999999 115.73058411939047,38.39999999999999" fill="hsl(133.89801886864007,57.067051460035145%,49.927446600049734%)" stroke="hsl(133.89801886864007,57.067051460035145%,49.927446600049734%)"></polygon><polygon points="117.57810498079726,73.6 115.73058411939047,76.8 112.03554239657686,76.8 110.18802153517007,73.6 112.03554239657686,70.39999999999999 115.73058411939047,70.39999999999999" fill="hsl(133.89801886864007,57.067051460035145%,49.927446600049734%)" stroke="hsl(133.89801886864007,57.067051460035145%,49.927446600049734%)"></polygon><polygon points="117.57810498079726,80 115.73058411939047,83.2 112.03554239657686,83.2 110.18802153517007,80 112.03554239657686,76.8 115.73058411939047,76.8" fill="hsl(133.89801886864007,57.067051460035145%,49.927446600049734%)" stroke="hsl(133.89801886864007,57.067051460035145%,49.927446600049734%)"></polygon><polygon points="117.57810498079726,92.8 115.73058411939047,96 112.03554239657686,96 110.18802153517007,92.8 112.03554239657686,89.6 115.73058411939047,89.6" fill="hsl(133.89801886864007,57.067051460035145%,49.927446600049734%)" stroke="hsl(133.89801886864007,57.067051460035145%,49.927446600049734%)"></polygon></svg>