<?xml version="1.0" encoding="utf-8"?>
<svg xmlns="http://www.w3.org/2000/svg" version="1.1" width="128" height="128" preserveaspectratio="xMinYMin" viewbox="0 0 128 128" data-seed="635119914"><rect width="100%" height="100%" fill="#f2f2f2"></rect><polygon points="64,45.52479138593198 64,54.76239569296598 56,59.38119784648299 48,54.76239569296598 48,45.52479138593197 56,40.90598923241497" fill="hsl(133.89801886864007,57.067051460035145%,49.927446600049734%)" stroke="hsl(133.89801886864007,57.067051460035145%,49.927446600049734%)"></polygon><polygon points="80,45.52479138593198 80,54.76239569296598 72,59.38119784648299 64,54.76239569296598 64,45.52479138593197 72,40.90598923241497" fill="hsl(133.89801886864007,57.067051460035145%,49.927446600049734%)" stroke="hsl(133.89801886864007,57.067051460035145%,49.927446600049734%)"></polygon><polygon points="64,73.23760430703402 64,82.47520861406804 56,87.09401076758505 48,82.47520861406804 48,73.23760430703402 56,68.61880215351701" fill="hsl(133.89801886864007,57.067051460035145%,49.927446600049734%)" stroke="hsl(133.89801886864007,57.067051460035145%,49.927446600049734%)"></polygon><polygon points="80,73.23760430703402 80,82.47520861406804 72,87.09401076758505 64,82.47520861406804 64,73.23760430703402 72,68.61880215351701" fill="hsl(133.89801886864007,57.067051460035145%,49.927446600049734%)" stroke="hsl(133.89801886864007,57.067051460035145%,49.927446600049734%)"></polygon><polygon points="72,31.668384925380952 72,40.90598923241497 64,45.52479138593197 56,40.90598923241497 56,31.66838492538095 64,27.049582771863946" fill="hsl(133.89801886864007,57.067051460035145%,49.927446600049734%)" stroke="hsl(133.89801886864007,57.067051460035145%,49.927446600049734%)"></polygon><polygon points="48,45.52479138593198 48,54.76239569296598 40,59.38119784648299 32,54.76239569296598 32,45.52479138593197 40,40.90598923241497" fill="hsl(133.89801886864007,57.067051460035145%,49.927446600049734%)" stroke="hsl(133.89801886864007,57.067051460035145%,49.927446600049734%)"></polygon><polygon points="96,45.52479138593198 96,54.76239569296598 88,59.38119784648299 80,54.76239569296598 80,45.52479138593197 88,40.90598923241497" fill="hsl(133.89801886864007,57.067051460035145%,49.927446600049734%)" stroke="hsl(133.89801886864007,57.067051460035145%,49.927446600049734%)"></polygon><polygon points="72,87.09401076758503 72,96.33161507461905 64,100.95041722813606 56,96.33161507461905 56,87.09401076758503 64,82.47520861406802" fill="hsl(133.89801886864007,57.067051460035145%,49.927446600049734%)" stroke="hsl(133.89801886864007,57.067051460035145%,49.927446600049734%)"></polygon><polygon points="48,17.81197846482993 48,27.049582771863943 40,31.66838492538095 32,27.049582771863943 32,17.811978464829927 40,13.193176311312923" fill="hsl(133.89801886864007,57.067051460035145%,49.927446600049734%)" stroke="hsl(133.89801886864007,57.067051460035145%,49.927446600049734%)"></polygon><polygon points="96,17.81197846482993 96,27.049582771863943 88,31.66838492538095 80,27.049582771863943 80,17.811978464829927 88,13.193176311312923" fill="hsl(133.89801886864007,57.067051460035145%,49.927446600049734%)" stroke="hsl(133.89801886864007,57.067051460035145%,49.927446600049734%)"></polygon><polygon points="32,45.52479138593198 32,54.76239569296598 24,59.38119784648299 15.999999999999998,54.76239569296598 16,45.52479138593197 24,40.90598923241497" fill="hsl(133.89801886864007,57.067051460035145%,49.927446600049734%)" stroke="hsl(133.89801886864007,57.067051460035145%,49.927446600049734%)"></polygon><polygon points="112,45.52479138593198 112,54.76239569296598 104,59.38119784648299 96,54.76239569296598 96,45.52479138593197 104,40.90598923241497" fill="hsl(133.89801886864007,57.067051460035145%,49.927446600049734%)" stroke="hsl(133.89801886864007,57.067051460035145%,49.927446600049734%)"></polygon><polygon points="24,59.38119784648299 24,68.61880215351701 16,73.23760430703402 7.999999999999998,68.61880215351701 8,59.38119784648299 15.999999999999998,54.76239569296599" fill="hsl(133.89801886864007,57.067051460035145%,49.927446600049734%)" stroke="hsl(133.89801886864007,57.067051460035145%,49.927446600049734%)"></polygon><polygon points="120,59.38119784648299 120,68.61880215351701 112,73.23760430703402 104,68.61880215351701 104,59.38119784648299 112,54.76239569296599" fill="hsl(133.89801886864007,57.067051460035145%,49.927446600049734%)" stroke="hsl(133.89801886864007,57.067051460035145%,49.927446600049734%)"></polygon><polygon points="40,87.09401076758503 40,96.33161507461905 32,100.95041722813606 24,96.33161507461905 24,87.09401076758503 32,82.47520861406802" fill="hsl(133.89801886864007,57.067051460035145%,49.927446600049734%)" stroke="hsl(133.89801886864007,57.067051460035145%,49.927446600049734%)"></polygon><polygon points="104,87.09401076758503 104,96.33161507461905 96,100.95041722813606 88,96.33161507461905 88,87.09401076758503 96,82.47520861406802" fill="hsl(133.89801886864007,57.067051460035145%,49.927446600049734%)" stroke="hsl(133.89801886864007,57.067051460035145%,49.927446600049734%)"></polygon><polygon points="48,100.95041722813605 48,110.18802153517007 40,114.80682368868707 32,110.18802153517007 32,100.95041722813605 40,96.33161507461904" fill="hsl(133.89801886864007,57.067051460035145%,49.927446600049734%)" stroke="hsl(133.89801886864007,57.067051460035145%,49.927446600049734%)"></polygon><polygon points="64,100.95041722813605 64,110.18802153517007 56,114.80682368868707 48,110.18802153517007 48,100.95041722813605 56,96.33161507461904" fill="hsl(133.89801886864007,57.067051460035145%,49.927446600049734%)" stroke="hsl(133.89801886864007,57.067051460035145%,49.927446600049734%)"></polygon><polygon points="80,100.95041722813605 80,110.18802153517007 72,114.80682368868707 64,110.18802153517007 64,100.95041722813605 72,96.33161507461904" fill="hsl(133.89801886864007,57.067051460035145%,49.927446600049734%)" stroke="hsl(133.89801886864007,57.067051460035145%,49.927446600049734%)"></polygon><polygon points="96,100.95041722813605 96,110.18802153517007 88,114.80682368868707 80,110.18802153517007 80,100.95041722813605 88,96.33161507461904" fill="hsl(133.89801886864007,57.067051460035145%,49.927446600049734%)" stroke="hsl(133.89801886864007,57.067051460035145%,49.927446600049734%)"></polygon></svg>