<?xml version="1.0" encoding="utf-8"?>
<svg xmlns="http://www.w3.org/2000/svg" version="1.1" width="128" height="128" preserveaspectratio="xMinYMin" viewbox="0 0 128 128" data-seed="635119914"><rect width="100%" height="100%" fill="#f2f2f2"></rect><polygon points="59.38119784648299,72 54.76239569296599,80 45.52479138593198,80 40.90598923241497,72 45.52479138593197,64 54.76239569296599,64" fill="hsl(133.89801886864007,57.067051460035145%,49.927446600049734%)" stroke="hsl(133.89801886864007,57.067051460035145%,49.927446600049734%)"></polygon><polygon points="73.23760430703402,48 68.61880215351701,56 59.381197846483,56 54.76239569296599,48 59.38119784648299,40 68.61880215351701,40" fill="hsl(133.89801886864007,57.067051460035145%,49.927446600049734%)" stroke="hsl(133.89801886864007,57.067051460035145%,49.927446600049734%)"></polygon><polygon points="87.09401076758505,72 82.47520861406804,80 73.23760430703402,80 68.61880215351701,72 73.23760430703402,64 82.47520861406804,64" fill="hsl(133.89801886864007,57.067051460035145%,49.927446600049734%)" stroke="hsl(133.89801886864007,57.067051460035145%,49.927446600049734%)"></polygon><polygon points="45.52479138593197,48 40.90598923241497,56 31.668384925380952,56 27.049582771863946,48 31.66838492538095,40 40.90598923241497,40" fill="hsl(133.89801886864007,57.067051460035145%,49.927446600049734%)" stroke="hsl(133.89801886864007,57.067051460035145%,49.927446600049734%)"></polygon><polygon points="45.52479138593197,64 40.90598923241497,72 31.668384925380952,72 27.049582771863946,64 31.66838492538095,56 40.90598923241497,56" fill="hsl(133.89801886864007,57.067051460035145%,49.927446600049734%)" stroke="hsl(133.89801886864007,57.067051460035145%,49.927446600049734%)"></polygon><polygon points="59.38119784648299,40 54.76239569296599,48 45.52479138593198,48 40.90598923241497,40 45.52479138593197,32 54.76239569296599,32" fill="hsl(133.89801886864007,57.067051460035145%,49.927446600049734%)" stroke="hsl(133.89801886864007,57.067051460035145%,49.927446600049734%)"></polygon><polygon points="87.09401076758505,40 82.47520861406804,48 73.23760430703402,48 68.61880215351701,40 73.23760430703402,32 82.47520861406804,32" fill="hsl(133.89801886864007,57.067051460035145%,49.927446600049734%)" stroke="hsl(133.89801886864007,57.067051460035145%,49.927446600049734%)"></polygon><polygon points="100.95041722813606,48 96.33161507461905,56 87.09401076758503,56 82.47520861406802,48 87.09401076758503,40 96.33161507461905,40" fill="hsl(133.89801886864007,57.067051460035145%,49.927446600049734%)" stroke="hsl(133.89801886864007,57.067051460035145%,49.927446600049734%)"></polygon><polygon points="100.95041722813606,64 96.33161507461905,72 87.09401076758503,72 82.47520861406802,64 87.09401076758503,56 96.33161507461905,56" fill="hsl(133.89801886864007,57.067051460035145%,49.927446600049734%)" stroke="hsl(133.89801886864007,57.067051460035145%,49.927446600049734%)"></polygon><polygon points="31.66838492538095,40 27.049582771863946,48 17.81197846482993,48 13.193176311312923,40 17.811978464829927,32 27.049582771863946,32" fill="hsl(133.89801886864007,57.067051460035145%,49.927446600049734%)" stroke="hsl(133.89801886864007,57.067051460035145%,49.927446600049734%)"></polygon><polygon points="31.66838492538095,72 27.049582771863946,80 17.81197846482993,80 13.193176311312923,72 17.811978464829927,64 27.049582771863946,64" fill="hsl(133.89801886864007,57.067051460035145%,49.927446600049734%)" stroke="hsl(133.89801886864007,57.067051460035145%,49.927446600049734%)"></polygon><polygon points="31.66838492538095,88 27.049582771863946,96 17.81197846482993,96 13.193176311312923,88 17.811978464829927,80 27.049582771863946,80" fill="hsl(133.89801886864007,57.067051460035145%,49.927446600049734%)" stroke="hsl(133.89801886864007,57.067051460035145%,49.927446600049734%)"></polygon><polygon points="45.52479138593197,32 40.90598923241497,40 31.668384925380952,40 27.049582771863946,32 31.66838492538095,24 40.90598923241497,24" fill="hsl(133.89801886864007,57.067051460035145%,49.927446600049734%)" stroke="hsl(133.89801886864007,57.067051460035145%,49.927446600049734%)"></polygon><polygon points="45.52479138593197,96 40.90598923241497,104 31.668384925380952,104 27.049582771863946,96 31.66838492538095,88 40.90598923241497,88" fill="hsl(133.89801886864007,57.067051460035145%,49.927446600049734%)" stroke="hsl(133.89801886864007,57.067051460035145%,49.927446600049734%)"></polygon><polygon points="59.38119784648299,24 54.76239569296599,32 45.52479138593198,32 40.90598923241497,24 45.52479138593197,16 54.76239569296599,16" fill="hsl(133.89801886864007,57.067051460035145%,49.927446600049734%)" stroke="hsl(133.89801886864007,57.067051460035145%,49.927446600049734%)"></polygon><polygon points="73.23760430703402,16 68.61880215351701,24 59.381197846483,24 54.76239569296599,16 59.38119784648299,8 68.61880215351701,8" fill="hsl(133.89801886864007,57.067051460035145%,49.927446600049734%)" stroke="hsl(133.89801886864007,57.067051460035145%,49.927446600049734%)"></polygon><polygon points="73.23760430703402,112 68.61880215351701,120 59.381197846483,120 54.76239569296599,112 59.38119784648299,104 68.61880215351701,104" fill="hsl(133.89801886864007,57.067051460035145%,49.927446600049734%)" stroke="hsl(133.89801886864007,57.067051460035145%,49.927446600049734%)"></polygon><polygon points="87.09401076758505,24 82.47520861406804,32 73.23760430703402,32 68.61880215351701,24 73.23760430703402,16 82.47520861406804,16" fill="hsl(133.89801886864007,57.067051460035145%,49.927446600049734%)" stroke="hsl(133.89801886864007,57.067051460035145%,49.927446600049734%)"></polygon><polygon points="100.95041722813606,32 96.33161507461905,40 87.09401076758503,40 82.47520861406802,32 87.09401076758503,24 96.33161507461905,24" fill="hsl(133.89801886864007,57.067051460035145%,49.927446600049734%)" stroke="hsl(133.89801886864007,57.067051460035145%,49.927446600049734%)"></polygon><polygon points="100.95041722813606,96 96.33161507461905,104 87.09401076758503,104 82.47520861406802,96 87.09401076758503,88 96.33161507461905,88" fill="hsl(133.89801886864007,57.067051460035145%,49.927446600049734%)" stroke="hsl(133.89801886864007,57.067051460035145%,49.927446600049734%)"></polygon><polygon points="114.80682368868707,40 110.18802153517007,48 100.95041722813605,48 96.33161507461904,40 100.95041722813605,32 110.18802153517007,32" fill="hsl(133.89801886864007,57.067051460035145%,49.927446600049734%)" stroke="hsl(133.89801886864007,57.067051460035145%,49.927446600049734%)"></polygon><polygon points="114.80682368868707,72 110.18802153517007,80 100.95041722813605,80 96.33161507461904,72 100.95041722813605,64 110.18802153517007,64" fill="hsl(133.89801886864007,57.067051460035145%,49.927446600049734%)" stroke="hsl(133.89801886864007,57.067051460035145%,49.927446600049734%)"></polygon><polygon points="114.80682368868707,88 110.18802153517007,96 100.95041722813605,96 96.33161507461904,88 100.95041722813605,80 110.18802153517007,80" fill="hsl(133.89801886864007,57.067051460035145%,49.927446600049734%)" stroke="hsl(133.89801886864007,57.067051460035145%,49.927446600049734%)"></polygon></svg>