<?xml version="1.0" encoding="utf-8"?>
<svg xmlns="http://www.w3.org/2000/svg" version="1.1" width="128" height="128" preserveaspectratio="xMinYMin" viewbox="0 0 128 128" data-seed="-874287544"><rect width="100%" height="100%" fill="#f2f2f2"></rect><polygon points="68.61880215351701,64 66.3094010767585,68 61.690598923241495,68 59.38119784648299,64 61.690598923241495,60 66.3094010767585,60" fill="hsl(139.75757335312665,61.72161371912807%,48.93644691910595%)" stroke="hsl(139.75757335312665,61.72161371912807%,48.93644691910595%)"></polygon><polygon points="61.690598923241495,60 59.38119784648299,64 54.76239569296598,64 52.45299461620748,60 54.76239569296598,56 59.38119784648299,56" fill="hsl(139.75757335312665,61.72161371912807%,48.93644691910595%)" stroke="hsl(139.75757335312665,61.72161371912807%,48.93644691910595%)"></polygon><polygon points="68.61880215351701,72 66.3094010767585,76 61.690598923241495,76 59.38119784648299,72 61.690598923241495,68 66.3094010767585,68" fill="hsl(139.75757335312665,61.72161371912807%,48.93644691910595%)" stroke="hsl(139.75757335312665,61.72161371912807%,48.93644691910595%)"></polygon><polygon points="75.54700538379252,60 73.23760430703402,64 68.61880215351701,64 66.3094010767585,60 68.61880215351701,56 73.23760430703402,56" fill="hsl(139.75757335312665,61.72161371912807%,48.93644691910595%)" stroke="hsl(139.75757335312665,61.72161371912807%,48.93644691910595%)"></polygon><polygon points="54.76239569296599,64 52.452994616207484,68 47.834192462690474,68 45.52479138593197,64 47.834192462690474,60 52.452994616207484,60" fill="hsl(139.75757335312665,61.72161371912807%,48.93644691910595%)" stroke="hsl(139.75757335312665,61.72161371912807%,48.93644691910595%)"></polygon><polygon points="54.76239569296599,72 52.452994616207484,76 47.834192462690474,76 45.52479138593197,72 47.834192462690474,68 52.452994616207484,68" fill="hsl(139.75757335312665,61.72161371912807%,48.93644691910595%)" stroke="hsl(139.75757335312665,61.72161371912807%,48.93644691910595%)"></polygon><polygon points="61.690598923241495,76 59.38119784648299,80 54.76239569296598,80 52.45299461620748,76 54.76239569296598,72 59.38119784648299,72" fill="hsl(139.75757335312665,61.72161371912807%,48.93644691910595%)" stroke="hsl(139.75757335312665,61.72161371912807%,48.93644691910595%)"></polygon><polygon points="68.61880215351701,48 66.3094010767585,52 61.690598923241495,52 59.38119784648299,48 61.690598923241495,44 66.3094010767585,44" fill="hsl(139.75757335312665,61.72161371912807%,48.93644691910595%)" stroke="hsl(139.75757335312665,61.72161371912807%,48.93644691910595%)"></polygon><polygon points="75.54700538379252,76 73.23760430703402,80 68.61880215351701,80 66.3094010767585,76 68.61880215351701,72 73.23760430703402,72" fill="hsl(139.75757335312665,61.72161371912807%,48.93644691910595%)" stroke="hsl(139.75757335312665,61.72161371912807%,48.93644691910595%)"></polygon><polygon points="82.47520861406804,64 80.16580753730953,68 75.54700538379252,68 73.23760430703402,64 75.54700538379252,60 80.16580753730953,60" fill="hsl(139.75757335312665,61.72161371912807%,48.93644691910595%)" stroke="hsl(139.75757335312665,61.72161371912807%,48.93644691910595%)"></polygon><polygon points="82.47520861406804,72 80.16580753730953,76 75.54700538379252,76 73.23760430703402,72 75.54700538379252,68 80.16580753730953,68" fill="hsl(139.75757335312665,61.72161371912807%,48.93644691910595%)" stroke="hsl(139.75757335312665,61.72161371912807%,48.93644691910595%)"></polygon><polygon points="47.83419246269048,52 45.52479138593198,56 40.90598923241497,56 38.59658815565646,52 40.90598923241497,48 45.52479138593198,48" fill="hsl(139.75757335312665,61.72161371912807%,48.93644691910595%)" stroke="hsl(139.75757335312665,61.72161371912807%,48.93644691910595%)"></polygon><polygon points="47.83419246269048,60 45.52479138593198,64 40.90598923241497,64 38.59658815565646,60 40.90598923241497,56 45.52479138593198,56" fill="hsl(139.75757335312665,61.72161371912807%,48.93644691910595%)" stroke="hsl(139.75757335312665,61.72161371912807%,48.93644691910595%)"></polygon><polygon points="47.83419246269048,68 45.52479138593198,72 40.90598923241497,72 38.59658815565646,68 40.90598923241497,64 45.52479138593198,64" fill="hsl(139.75757335312665,61.72161371912807%,48.93644691910595%)" stroke="hsl(139.75757335312665,61.72161371912807%,48.93644691910595%)"></polygon><polygon points="47.83419246269048,76 45.52479138593198,80 40.90598923241497,80 38.59658815565646,76 40.90598923241497,72 45.52479138593198,72" fill="hsl(139.75757335312665,61.72161371912807%,48.93644691910595%)" stroke="hsl(139.75757335312665,61.72161371912807%,48.93644691910595%)"></polygon><polygon points="54.76239569296599,80 52.452994616207484,84 47.834192462690474,84 45.52479138593197,80 47.834192462690474,76 52.452994616207484,76" fill="hsl(139.75757335312665,61.72161371912807%,48.93644691910595%)" stroke="hsl(139.75757335312665,61.72161371912807%,48.93644691910595%)"></polygon><polygon points="61.690598923241495,44 59.38119784648299,48 54.76239569296598,48 52.45299461620748,44 54.76239569296598,40 59.38119784648299,40" fill="hsl(139.75757335312665,61.72161371912807%,48.93644691910595%)" stroke="hsl(139.75757335312665,61.72161371912807%,48.93644691910595%)"></polygon><polygon points="68.61880215351701,88 66.3094010767585,92 61.690598923241495,92 59.38119784648299,88 61.690598923241495,84 66.3094010767585,84" fill="hsl(139.75757335312665,61.72161371912807%,48.93644691910595%)" stroke="hsl(139.75757335312665,61.72161371912807%,48.93644691910595%)"></polygon><polygon points="75.54700538379252,44 73.23760430703402,48 68.61880215351701,48 66.3094010767585,44 68.61880215351701,40 73.23760430703402,40" fill="hsl(139.75757335312665,61.72161371912807%,48.93644691910595%)" stroke="hsl(139.75757335312665,61.72161371912807%,48.93644691910595%)"></polygon><polygon points="82.47520861406804,80 80.16580753730953,84 75.54700538379252,84 73.23760430703402,80 75.54700538379252,76 80.16580753730953,76" fill="hsl(139.75757335312665,61.72161371912807%,48.93644691910595%)" stroke="hsl(139.75757335312665,61.72161371912807%,48.93644691910595%)"></polygon><polygon points="89.40341184434354,52 87.09401076758503,56 82.47520861406802,56 80.16580753730952,52 82.47520861406802,48 87.09401076758503,48" fill="hsl(139.75757335312665,61.72161371912807%,48.93644691910595%)" stroke="hsl(139.75757335312665,61.72161371912807%,48.93644691910595%)"></polygon><polygon points="89.40341184434354,60 87.09401076758503,64 82.47520861406802,64 80.16580753730952,60 82.47520861406802,56 87.09401076758503,56" fill="hsl(139.75757335312665,61.72161371912807%,48.93644691910595%)" stroke="hsl(139.75757335312665,61.72161371912807%,48.93644691910595%)"></polygon><polygon points="89.40341184434354,68 87.09401076758503,72 82.47520861406802,72 80.16580753730952,68 82.47520861406802,64 87.09401076758503,64" fill="hsl(139.75757335312665,61.72161371912807%,48.93644691910595%)" stroke="hsl(139.75757335312665,61.72161371912807%,48.93644691910595%)"></polygon><polygon points="89.40341184434354,76 87.09401076758503,80 82.47520861406802,80 80.16580753730952,76 82.47520861406802,72 87.09401076758503,72" fill="hsl(139.75757335312665,61.72161371912807%,48.93644691910595%)" stroke="hsl(139.75757335312665,61.72161371912807%,48.93644691910595%)"></polygon><polygon points="40.90598923241497,64 38.59658815565646,68 33.97778600213945,68 31.668384925380952,64 33.97778600213945,60 38.59658815565646,60" fill="hsl(139.75757335312665,61.72161371912807%,48.93644691910595%)" stroke="hsl(139.75757335312665,61.72161371912807%,48.93644691910595%)"></polygon><polygon points="40.90598923241497,72 38.59658815565646,76 33.97778600213945,76 31.668384925380952,72 33.97778600213945,68 38.59658815565646,68" fill="hsl(139.75757335312665,61.72161371912807%,48.93644691910595%)" stroke="hsl(139.75757335312665,61.72161371912807%,48.93644691910595%)"></polygon><polygon points="47.83419246269048,84 45.52479138593198,88 40.90598923241497,88 38.59658815565646,84 40.90598923241497,80 45.52479138593198,80" fill="hsl(139.75757335312665,61.72161371912807%,48.93644691910595%)" stroke="hsl(139.75757335312665,61.72161371912807%,48.93644691910595%)"></polygon><polygon points="54.76239569296599,88 52.452994616207484,92 47.834192462690474,92 45.52479138593197,88 47.834192462690474,84 52.452994616207484,84" fill="hsl(139.75757335312665,61.72161371912807%,48.93644691910595%)" stroke="hsl(139.75757335312665,61.72161371912807%,48.93644691910595%)"></polygon><polygon points="61.690598923241495,92 59.38119784648299,96 54.76239569296598,96 52.45299461620748,92 54.76239569296598,88 59.38119784648299,88" fill="hsl(139.75757335312665,61.72161371912807%,48.93644691910595%)" stroke="hsl(139.75757335312665,61.72161371912807%,48.93644691910595%)"></polygon><polygon points="68.61880215351701,96 66.3094010767585,100 61.690598923241495,100 59.38119784648299,96 61.690598923241495,92 66.3094010767585,92" fill="hsl(139.75757335312665,61.72161371912807%,48.93644691910595%)" stroke="hsl(139.75757335312665,61.72161371912807%,48.93644691910595%)"></polygon><polygon points="75.54700538379252,92 73.23760430703402,96 68.61880215351701,96 66.3094010767585,92 68.61880215351701,88 73.23760430703402,88" fill="hsl(139.75757335312665,61.72161371912807%,48.93644691910595%)" stroke="hsl(139.75757335312665,61.72161371912807%,48.93644691910595%)"></polygon><polygon points="82.47520861406804,88 80.16580753730953,92 75.54700538379252,92 73.23760430703402,88 75.54700538379252,84 80.16580753730953,84" fill="hsl(139.75757335312665,61.72161371912807%,48.93644691910595%)" stroke="hsl(139.75757335312665,61.72161371912807%,48.93644691910595%)"></polygon><polygon points="89.40341184434354,84 87.09401076758503,88 82.47520861406802,88 80.16580753730952,84 82.47520861406802,80 87.09401076758503,80" fill="hsl(139.75757335312665,61.72161371912807%,48.93644691910595%)" stroke="hsl(139.75757335312665,61.72161371912807%,48.93644691910595%)"></polygon><polygon points="96.33161507461905,64 94.02221399786055,68 89.40341184434354,68 87.09401076758503,64 89.40341184434354,60 94.02221399786055,60" fill="hsl(139.75757335312665,61.72161371912807%,48.93644691910595%)" stroke="hsl(139.75757335312665,61.72161371912807%,48.93644691910595%)"></polygon><polygon points="96.33161507461905,72 94.02221399786055,76 89.40341184434354,76 87.09401076758503,72 89.40341184434354,68 94.02221399786055,68" fill="hsl(139.75757335312665,61.72161371912807%,48.93644691910595%)" stroke="hsl(139.75757335312665,61.72161371912807%,48.93644691910595%)"></polygon><polygon points="33.97778600213945,60 31.66838492538095,64 27.049582771863943,64 24.740181695105438,60 27.04958277186394,56 31.66838492538095,56" fill="hsl(139.75757335312665,61.72161371912807%,48.93644691910595%)" stroke="hsl(139.75757335312665,61.72161371912807%,48.93644691910595%)"></polygon><polygon points="33.97778600213945,68 31.66838492538095,72 27.049582771863943,72 24.740181695105438,68 27.04958277186394,64 31.66838492538095,64" fill="hsl(139.75757335312665,61.72161371912807%,48.93644691910595%)" stroke="hsl(139.75757335312665,61.72161371912807%,48.93644691910595%)"></polygon><polygon points="33.97778600213945,76 31.66838492538095,80 27.049582771863943,80 24.740181695105438,76 27.04958277186394,72 31.66838492538095,72" fill="hsl(139.75757335312665,61.72161371912807%,48.93644691910595%)" stroke="hsl(139.75757335312665,61.72161371912807%,48.93644691910595%)"></polygon><polygon points="40.90598923241497,40 38.59658815565646,44 33.97778600213945,44 31.668384925380952,40 33.97778600213945,36 38.59658815565646,36" fill="hsl(139.75757335312665,61.72161371912807%,48.93644691910595%)" stroke="hsl(139.75757335312665,61.72161371912807%,48.93644691910595%)"></polygon><polygon points="47.83419246269048,92 45.52479138593198,96 40.90598923241497,96 38.59658815565646,92 40.90598923241497,88 45.52479138593198,88" fill="hsl(139.75757335312665,61.72161371912807%,48.93644691910595%)" stroke="hsl(139.75757335312665,61.72161371912807%,48.93644691910595%)"></polygon><polygon points="54.76239569296599,32 52.452994616207484,36 47.834192462690474,36 45.52479138593197,32 47.834192462690474,28 52.452994616207484,28" fill="hsl(139.75757335312665,61.72161371912807%,48.93644691910595%)" stroke="hsl(139.75757335312665,61.72161371912807%,48.93644691910595%)"></polygon><polygon points="54.76239569296599,96 52.452994616207484,100 47.834192462690474,100 45.52479138593197,96 47.834192462690474,92 52.452994616207484,92" fill="hsl(139.75757335312665,61.72161371912807%,48.93644691910595%)" stroke="hsl(139.75757335312665,61.72161371912807%,48.93644691910595%)"></polygon><polygon points="61.690598923241495,28 59.38119784648299,32 54.76239569296598,32 52.45299461620748,28 54.76239569296598,24 59.38119784648299,24" fill="hsl(139.75757335312665,61.72161371912807%,48.93644691910595%)" stroke="hsl(139.75757335312665,61.72161371912807%,48.93644691910595%)"></polygon><polygon points="61.690598923241495,100 59.38119784648299,104 54.76239569296598,104 52.45299461620748,100 54.76239569296598,96 59.38119784648299,96" fill="hsl(139.75757335312665,61.72161371912807%,48.93644691910595%)" stroke="hsl(139.75757335312665,61.72161371912807%,48.93644691910595%)"></polygon><polygon points="75.54700538379252,28 73.23760430703402,32 68.61880215351701,32 66.3094010767585,28 68.61880215351701,24 73.23760430703402,24" fill="hsl(139.75757335312665,61.72161371912807%,48.93644691910595%)" stroke="hsl(139.75757335312665,61.72161371912807%,48.93644691910595%)"></polygon><polygon points="75.54700538379252,100 73.23760430703402,104 68.61880215351701,104 66.3094010767585,100 68.61880215351701,96 73.23760430703402,96" fill="hsl(139.75757335312665,61.72161371912807%,48.93644691910595%)" stroke="hsl(139.75757335312665,61.72161371912807%,48.93644691910595%)"></polygon><polygon points="82.47520861406804,32 80.16580753730953,36 75.54700538379252,36 73.23760430703402,32 75.54700538379252,28 80.16580753730953,28" fill="hsl(139.75757335312665,61.72161371912807%,48.93644691910595%)" stroke="hsl(139.75757335312665,61.72161371912807%,48.93644691910595%)"></polygon><polygon points="82.47520861406804,96 80.16580753730953,100 75.54700538379252,100 73.23760430703402,96 75.54700538379252,92 80.16580753730953,92" fill="hsl(139.75757335312665,61.72161371912807%,48.93644691910595%)" stroke="hsl(139.75757335312665,61.72161371912807%,48.93644691910595%)"></polygon><polygon points="89.40341184434354,92 87.09401076758503,96 82.47520861406802,96 80.16580753730952,92 82.47520861406802,88 87.09401076758503,88" fill="hsl(139.75757335312665,61.72161371912807%,48.93644691910595%)" stroke="hsl(139.75757335312665,61.72161371912807%,48.93644691910595%)"></polygon><polygon points="96.33161507461905,40 94.02221399786055,44 89.40341184434354,44 87.09401076758503,40 89.40341184434354,36 94.02221399786055,36" fill="hsl(139.75757335312665,61.72161371912807%,48.93644691910595%)" stroke="hsl(139.75757335312665,61.72161371912807%,48.93644691910595%)"></polygon><polygon points="103.25981830489457,60 100.95041722813606,64 96.33161507461905,64 94.02221399786055,60 96.33161507461905,56 100.95041722813606,56" fill="hsl(139.75757335312665,61.72161371912807%,48.93644691910595%)" stroke="hsl(139.75757335312665,61.72161371912807%,48.93644691910595%)"></polygon><polygon points="103.25981830489457,68 100.95041722813606,72 96.33161507461905,72 94.02221399786055,68 96.33161507461905,64 100.95041722813606,64" fill="hsl(139.75757335312665,61.72161371912807%,48.93644691910595%)" stroke="hsl(139.75757335312665,61.72161371912807%,48.93644691910595%)"></polygon><polygon points="103.25981830489457,76 100.95041722813606,80 96.33161507461905,80 94.02221399786055,76 96.33161507461905,72 100.95041722813606,72" fill="hsl(139.75757335312665,61.72161371912807%,48.93644691910595%)" stroke="hsl(139.75757335312665,61.72161371912807%,48.93644691910595%)"></polygon><polygon points="27.049582771863943,48 24.74018169510544,52 20.121379541588436,52 17.81197846482993,48 20.121379541588432,44 24.74018169510544,44" fill="hsl(139.75757335312665,61.72161371912807%,48.93644691910595%)" stroke="hsl(139.75757335312665,61.72161371912807%,48.93644691910595%)"></polygon><polygon points="27.049582771863943,64 24.74018169510544,68 20.121379541588436,68 17.81197846482993,64 20.121379541588432,60 24.74018169510544,60" fill="hsl(139.75757335312665,61.72161371912807%,48.93644691910595%)" stroke="hsl(139.75757335312665,61.72161371912807%,48.93644691910595%)"></polygon><polygon points="27.049582771863943,72 24.74018169510544,76 20.121379541588436,76 17.81197846482993,72 20.121379541588432,68 24.74018169510544,68" fill="hsl(139.75757335312665,61.72161371912807%,48.93644691910595%)" stroke="hsl(139.75757335312665,61.72161371912807%,48.93644691910595%)"></polygon><polygon points="27.049582771863943,88 24.74018169510544,92 20.121379541588436,92 17.81197846482993,88 20.121379541588432,84 24.74018169510544,84" fill="hsl(139.75757335312665,61.72161371912807%,48.93644691910595%)" stroke="hsl(139.75757335312665,61.72161371912807%,48.93644691910595%)"></polygon><polygon points="33.97778600213945,36 31.66838492538095,40 27.049582771863943,40 24.740181695105438,36 27.04958277186394,32 31.66838492538095,32" fill="hsl(139.75757335312665,61.72161371912807%,48.93644691910595%)" stroke="hsl(139.75757335312665,61.72161371912807%,48.93644691910595%)"></polygon><polygon points="40.90598923241497,96 38.59658815565646,100 33.97778600213945,100 31.668384925380952,96 33.97778600213945,92 38.59658815565646,92" fill="hsl(139.75757335312665,61.72161371912807%,48.93644691910595%)" stroke="hsl(139.75757335312665,61.72161371912807%,48.93644691910595%)"></polygon><polygon points="47.83419246269048,28 45.52479138593198,32 40.90598923241497,32 38.59658815565646,28 40.90598923241497,24 45.52479138593198,24" fill="hsl(139.75757335312665,61.72161371912807%,48.93644691910595%)" stroke="hsl(139.75757335312665,61.72161371912807%,48.93644691910595%)"></polygon><polygon points="47.83419246269048,100 45.52479138593198,104 40.90598923241497,104 38.59658815565646,100 40.90598923241497,96 45.52479138593198,96" fill="hsl(139.75757335312665,61.72161371912807%,48.93644691910595%)" stroke="hsl(139.75757335312665,61.72161371912807%,48.93644691910595%)"></polygon><polygon points="54.76239569296599,24 52.452994616207484,28 47.834192462690474,28 45.52479138593197,24 47.834192462690474,20 52.452994616207484,20" fill="hsl(139.75757335312665,61.72161371912807%,48.93644691910595%)" stroke="hsl(139.75757335312665,61.72161371912807%,48.93644691910595%)"></polygon><polygon points="61.690598923241495,108 59.38119784648299,112 54.76239569296598,112 52.45299461620748,108 54.76239569296598,104 59.38119784648299,104" fill="hsl(139.75757335312665,61.72161371912807%,48.93644691910595%)" stroke="hsl(139.75757335312665,61.72161371912807%,48.93644691910595%)"></polygon><polygon points="75.54700538379252,108 73.23760430703402,112 68.61880215351701,112 66.3094010767585,108 68.61880215351701,104 73.23760430703402,104" fill="hsl(139.75757335312665,61.72161371912807%,48.93644691910595%)" stroke="hsl(139.75757335312665,61.72161371912807%,48.93644691910595%)"></polygon><polygon points="82.47520861406804,24 80.16580753730953,28 75.54700538379252,28 73.23760430703402,24 75.54700538379252,20 80.16580753730953,20" fill="hsl(139.75757335312665,61.72161371912807%,48.93644691910595%)" stroke="hsl(139.75757335312665,61.72161371912807%,48.93644691910595%)"></polygon><polygon points="89.40341184434354,28 87.09401076758503,32 82.47520861406802,32 80.16580753730952,28 82.47520861406802,24 87.09401076758503,24" fill="hsl(139.75757335312665,61.72161371912807%,48.93644691910595%)" stroke="hsl(139.75757335312665,61.72161371912807%,48.93644691910595%)"></polygon><polygon points="89.40341184434354,100 87.09401076758503,104 82.47520861406802,104 80.16580753730952,100 82.47520861406802,96 87.09401076758503,96" fill="hsl(139.75757335312665,61.72161371912807%,48.93644691910595%)" stroke="hsl(139.75757335312665,61.72161371912807%,48.93644691910595%)"></polygon><polygon points="96.33161507461905,96 94.02221399786055,100 89.40341184434354,100 87.09401076758503,96 89.40341184434354,92 94.02221399786055,92" fill="hsl(139.75757335312665,61.72161371912807%,48.93644691910595%)" stroke="hsl(139.75757335312665,61.72161371912807%,48.93644691910595%)"></polygon><polygon points="103.25981830489457,36 100.95041722813606,40 96.33161507461905,40 94.02221399786055,36 96.33161507461905,32 100.95041722813606,32" fill="hsl(139.75757335312665,61.72161371912807%,48.93644691910595%)" stroke="hsl(139.75757335312665,61.72161371912807%,48.93644691910595%)"></polygon><polygon points="110.18802153517007,48 107.87862045841156,52 103.25981830489455,52 100.95041722813605,48 103.25981830489455,44 107.87862045841156,44" fill="hsl(139.75757335312665,61.72161371912807%,48.93644691910595%)" stroke="hsl(139.75757335312665,61.72161371912807%,48.93644691910595%)"></polygon><polygon points="110.18802153517007,64 107.87862045841156,68 103.25981830489455,68 100.95041722813605,64 103.25981830489455,60 107.87862045841156,60" fill="hsl(139.75757335312665,61.72161371912807%,48.93644691910595%)" stroke="hsl(139.75757335312665,61.72161371912807%,48.93644691910595%)"></polygon><polygon points="110.18802153517007,72 107.87862045841156,76 103.25981830489455,76 100.95041722813605,72 103.25981830489455,68 107.87862045841156,68" fill="hsl(139.75757335312665,61.72161371912807%,48.93644691910595%)" stroke="hsl(139.75757335312665,61.72161371912807%,48.93644691910595%)"></polygon><polygon points="110.18802153517007,88 107.87862045841156,92 103.25981830489455,92 100.95041722813605,88 103.25981830489455,84 107.87862045841156,84" fill="hsl(139.75757335312665,61.72161371912807%,48.93644691910595%)" stroke="hsl(139.75757335312665,61.72161371912807%,48.93644691910595%)"></polygon><polygon points="20.121379541588436,44 17.811978464829934,48 13.193176311312927,48 10.883775234554424,44 13.193176311312925,40 17.811978464829934,40" fill="hsl(139.75757335312665,61.72161371912807%,48.93644691910595%)" stroke="hsl(139.75757335312665,61.72161371912807%,48.93644691910595%)"></polygon><polygon points="20.121379541588436,60 17.811978464829934,64 13.193176311312927,64 10.883775234554424,60 13.193176311312925,56 17.811978464829934,56" fill="hsl(139.75757335312665,61.72161371912807%,48.93644691910595%)" stroke="hsl(139.75757335312665,61.72161371912807%,48.93644691910595%)"></polygon><polygon points="20.121379541588436,92 17.811978464829934,96 13.193176311312927,96 10.883775234554424,92 13.193176311312925,88 17.811978464829934,88" fill="hsl(139.75757335312665,61.72161371912807%,48.93644691910595%)" stroke="hsl(139.75757335312665,61.72161371912807%,48.93644691910595%)"></polygon><polygon points="27.049582771863943,32 24.74018169510544,36 20.121379541588436,36 17.81197846482993,32 20.121379541588432,28 24.74018169510544,28" fill="hsl(139.75757335312665,61.72161371912807%,48.93644691910595%)" stroke="hsl(139.75757335312665,61.72161371912807%,48.93644691910595%)"></polygon><polygon points="33.97778600213945,28 31.66838492538095,32 27.049582771863943,32 24.740181695105438,28 27.04958277186394,24 31.66838492538095,24" fill="hsl(139.75757335312665,61.72161371912807%,48.93644691910595%)" stroke="hsl(139.75757335312665,61.72161371912807%,48.93644691910595%)"></polygon><polygon points="40.90598923241497,24 38.59658815565646,28 33.97778600213945,28 31.668384925380952,24 33.97778600213945,20 38.59658815565646,20" fill="hsl(139.75757335312665,61.72161371912807%,48.93644691910595%)" stroke="hsl(139.75757335312665,61.72161371912807%,48.93644691910595%)"></polygon><polygon points="47.83419246269048,20 45.52479138593198,24 40.90598923241497,24 38.59658815565646,20 40.90598923241497,16 45.52479138593198,16" fill="hsl(139.75757335312665,61.72161371912807%,48.93644691910595%)" stroke="hsl(139.75757335312665,61.72161371912807%,48.93644691910595%)"></polygon><polygon points="47.83419246269048,108 45.52479138593198,112 40.90598923241497,112 38.59658815565646,108 40.90598923241497,104 45.52479138593198,104" fill="hsl(139.75757335312665,61.72161371912807%,48.93644691910595%)" stroke="hsl(139.75757335312665,61.72161371912807%,48.93644691910595%)"></polygon><polygon points="54.76239569296599,16 52.452994616207484,20 47.834192462690474,20 45.52479138593197,16 47.834192462690474,12 52.452994616207484,12" fill="hsl(139.75757335312665,61.72161371912807%,48.93644691910595%)" stroke="hsl(139.75757335312665,61.72161371912807%,48.93644691910595%)"></polygon><polygon points="61.690598923241495,116 59.38119784648299,120 54.76239569296598,120 52.45299461620748,116 54.76239569296598,112 59.38119784648299,112" fill="hsl(139.75757335312665,61.72161371912807%,48.93644691910595%)" stroke="hsl(139.75757335312665,61.72161371912807%,48.93644691910595%)"></polygon><polygon points="68.61880215351701,8 66.3094010767585,12 61.690598923241495,12 59.38119784648299,8 61.690598923241495,4 66.3094010767585,4" fill="hsl(139.75757335312665,61.72161371912807%,48.93644691910595%)" stroke="hsl(139.75757335312665,61.72161371912807%,48.93644691910595%)"></polygon><polygon points="68.61880215351701,120 66.3094010767585,124 61.690598923241495,124 59.38119784648299,120 61.690598923241495,116 66.3094010767585,116" fill="hsl(139.75757335312665,61.72161371912807%,48.93644691910595%)" stroke="hsl(139.75757335312665,61.72161371912807%,48.93644691910595%)"></polygon><polygon points="75.54700538379252,116 73.23760430703402,120 68.61880215351701,120 66.3094010767585,116 68.61880215351701,112 73.23760430703402,112" fill="hsl(139.75757335312665,61.72161371912807%,48.93644691910595%)" stroke="hsl(139.75757335312665,61.72161371912807%,48.93644691910595%)"></polygon><polygon points="82.47520861406804,16 80.16580753730953,20 75.54700538379252,20 73.23760430703402,16 75.54700538379252,12 80.16580753730953,12" fill="hsl(139.75757335312665,61.72161371912807%,48.93644691910595%)" stroke="hsl(139.75757335312665,61.72161371912807%,48.93644691910595%)"></polygon><polygon points="89.40341184434354,20 87.09401076758503,24 82.47520861406802,24 80.16580753730952,20 82.47520861406802,16 87.09401076758503,16" fill="hsl(139.75757335312665,61.72161371912807%,48.93644691910595%)" stroke="hsl(139.75757335312665,61.72161371912807%,48.93644691910595%)"></polygon><polygon points="89.40341184434354,108 87.09401076758503,112 82.47520861406802,112 80.16580753730952,108 82.47520861406802,104 87.09401076758503,104" fill="hsl(139.75757335312665,61.72161371912807%,48.93644691910595%)" stroke="hsl(139.75757335312665,61.72161371912807%,48.93644691910595%)"></polygon><polygon points="96.33161507461905,24 94.02221399786055,28 89.40341184434354,28 87.09401076758503,24 89.40341184434354,20 94.02221399786055,20" fill="hsl(139.75757335312665,61.72161371912807%,48.93644691910595%)" stroke="hsl(139.75757335312665,61.72161371912807%,48.93644691910595%)"></polygon><polygon points="103.25981830489457,28 100.95041722813606,32 96.33161507461905,32 94.02221399786055,28 96.33161507461905,24 100.95041722813606,24" fill="hsl(139.75757335312665,61.72161371912807%,48.93644691910595%)" stroke="hsl(139.75757335312665,61.72161371912807%,48.93644691910595%)"></polygon><polygon points="110.18802153517007,32 107.87862045841156,36 103.25981830489455,36 100.95041722813605,32 103.25981830489455,28 107.87862045841156,28" fill="hsl(139.75757335312665,61.72161371912807%,48.93644691910595%)" stroke="hsl(139.75757335312665,61.72161371912807%,48.93644691910595%)"></polygon><polygon points="117.11622476544558,44 114.80682368868707,48 110.18802153517007,48 107.87862045841156,44 110.18802153517007,40 114.80682368868707,40" fill="hsl(139.75757335312665,61.72161371912807%,48.93644691910595%)" stroke="hsl(139.75757335312665,61.72161371912807%,48.93644691910595%)"></polygon><polygon points="117.11622476544558,60 114.80682368868707,64 110.18802153517007,64 107.87862045841156,60 110.18802153517007,56 114.80682368868707,56" fill="hsl(139.75757335312665,61.72161371912807%,48.93644691910595%)" stroke="hsl(139.75757335312665,61.72161371912807%,48.93644691910595%)"></polygon><polygon points="117.11622476544558,92 114.80682368868707,96 110.18802153517007,96 107.87862045841156,92 110.18802153517007,88 114.80682368868707,88" fill="hsl(139.75757335312665,61.72161371912807%,48.93644691910595%)" stroke="hsl(139.75757335312665,61.72161371912807%,48.93644691910595%)"></polygon></svg>