<?xml version="1.0" encoding="utf-8"?>
<svg xmlns="http://www.w3.org/2000/svg" version="1.1" width="128" height="128" preserveaspectratio="xMinYMin" viewbox="0 0 128 128" data-seed="270740594"><rect width="100%" height="100%" fill="#f2f2f2"></rect><polygon points="60.920798564322,58.666666666666664 57.841597128644,64 51.68319425728799,64 48.60399282160998,58.666666666666664 51.68319425728798,53.33333333333333 57.841597128644,53.33333333333333" fill="hsl(-89.95875533670187,64.38487368170172%,47.33657955657691%)" stroke="hsl(-89.95875533670187,64.38487368170172%,47.33657955657691%)"></polygon><polygon points="60.920798564322,69.33333333333333 57.841597128644,74.66666666666666 51.68319425728799,74.66666666666666 48.60399282160998,69.33333333333333 51.68319425728798,64 57.841597128644,63.99999999999999" fill="hsl(-89.95875533670187,64.38487368170172%,47.33657955657691%)" stroke="hsl(-89.95875533670187,64.38487368170172%,47.33657955657691%)"></polygon><polygon points="70.158402871356,74.66666666666667 67.079201435678,80 60.920798564322,80 57.84159712864399,74.66666666666667 60.92079856432199,69.33333333333334 67.079201435678,69.33333333333334" fill="hsl(-89.95875533670187,64.38487368170172%,47.33657955657691%)" stroke="hsl(-89.95875533670187,64.38487368170172%,47.33657955657691%)"></polygon><polygon points="79.39600717839002,58.666666666666664 76.31680574271202,64 70.15840287135602,64 67.07920143567802,58.666666666666664 70.15840287135602,53.33333333333333 76.31680574271202,53.33333333333333" fill="hsl(-89.95875533670187,64.38487368170172%,47.33657955657691%)" stroke="hsl(-89.95875533670187,64.38487368170172%,47.33657955657691%)"></polygon><polygon points="79.39600717839002,69.33333333333333 76.31680574271202,74.66666666666666 70.15840287135602,74.66666666666666 67.07920143567802,69.33333333333333 70.15840287135602,64 76.31680574271202,63.99999999999999" fill="hsl(-89.95875533670187,64.38487368170172%,47.33657955657691%)" stroke="hsl(-89.95875533670187,64.38487368170172%,47.33657955657691%)"></polygon><polygon points="51.68319425728799,53.333333333333336 48.60399282160998,58.66666666666667 42.445589950253975,58.66666666666667 39.366388514575966,53.333333333333336 42.44558995025397,48 48.60399282160998,48" fill="hsl(-89.95875533670187,64.38487368170172%,47.33657955657691%)" stroke="hsl(-89.95875533670187,64.38487368170172%,47.33657955657691%)"></polygon><polygon points="60.920798564322,48 57.841597128644,53.333333333333336 51.68319425728799,53.333333333333336 48.60399282160998,48 51.68319425728798,42.66666666666667 57.841597128644,42.666666666666664" fill="hsl(-89.95875533670187,64.38487368170172%,47.33657955657691%)" stroke="hsl(-89.95875533670187,64.38487368170172%,47.33657955657691%)"></polygon><polygon points="70.158402871356,85.33333333333333 67.079201435678,90.66666666666666 60.920798564322,90.66666666666666 57.84159712864399,85.33333333333333 60.92079856432199,80 67.079201435678,80" fill="hsl(-89.95875533670187,64.38487368170172%,47.33657955657691%)" stroke="hsl(-89.95875533670187,64.38487368170172%,47.33657955657691%)"></polygon><polygon points="79.39600717839002,48 76.31680574271202,53.333333333333336 70.15840287135602,53.333333333333336 67.07920143567802,48 70.15840287135602,42.66666666666667 76.31680574271202,42.666666666666664" fill="hsl(-89.95875533670187,64.38487368170172%,47.33657955657691%)" stroke="hsl(-89.95875533670187,64.38487368170172%,47.33657955657691%)"></polygon><polygon points="88.63361148542403,53.333333333333336 85.55441004974602,58.66666666666667 79.39600717839002,58.66666666666667 76.31680574271202,53.333333333333336 79.39600717839002,48 85.55441004974602,48" fill="hsl(-89.95875533670187,64.38487368170172%,47.33657955657691%)" stroke="hsl(-89.95875533670187,64.38487368170172%,47.33657955657691%)"></polygon><polygon points="42.445589950253975,48 39.36638851457597,53.333333333333336 33.20798564321996,53.333333333333336 30.128784207541955,48 33.207985643219956,42.66666666666667 39.36638851457597,42.666666666666664" fill="hsl(-89.95875533670187,64.38487368170172%,47.33657955657691%)" stroke="hsl(-89.95875533670187,64.38487368170172%,47.33657955657691%)"></polygon><polygon points="51.68319425728799,42.66666666666667 48.60399282160998,48.00000000000001 42.445589950253975,48.00000000000001 39.366388514575966,42.66666666666667 42.44558995025397,37.33333333333334 48.60399282160998,37.333333333333336" fill="hsl(-89.95875533670187,64.38487368170172%,47.33657955657691%)" stroke="hsl(-89.95875533670187,64.38487368170172%,47.33657955657691%)"></polygon><polygon points="51.68319425728799,85.33333333333333 48.60399282160998,90.66666666666666 42.445589950253975,90.66666666666666 39.366388514575966,85.33333333333333 42.44558995025397,80 48.60399282160998,80" fill="hsl(-89.95875533670187,64.38487368170172%,47.33657955657691%)" stroke="hsl(-89.95875533670187,64.38487368170172%,47.33657955657691%)"></polygon><polygon points="70.158402871356,32 67.079201435678,37.333333333333336 60.920798564322,37.333333333333336 57.84159712864399,32 60.92079856432199,26.666666666666668 67.079201435678,26.666666666666668" fill="hsl(-89.95875533670187,64.38487368170172%,47.33657955657691%)" stroke="hsl(-89.95875533670187,64.38487368170172%,47.33657955657691%)"></polygon><polygon points="88.63361148542403,42.66666666666667 85.55441004974602,48.00000000000001 79.39600717839002,48.00000000000001 76.31680574271202,42.66666666666667 79.39600717839002,37.33333333333334 85.55441004974602,37.333333333333336" fill="hsl(-89.95875533670187,64.38487368170172%,47.33657955657691%)" stroke="hsl(-89.95875533670187,64.38487368170172%,47.33657955657691%)"></polygon><polygon points="88.63361148542403,85.33333333333333 85.55441004974602,90.66666666666666 79.39600717839002,90.66666666666666 76.31680574271202,85.33333333333333 79.39600717839002,80 85.55441004974602,80" fill="hsl(-89.95875533670187,64.38487368170172%,47.33657955657691%)" stroke="hsl(-89.95875533670187,64.38487368170172%,47.33657955657691%)"></polygon><polygon points="97.87121579245803,48 94.79201435678003,53.333333333333336 88.63361148542403,53.333333333333336 85.55441004974602,48 88.63361148542403,42.66666666666667 94.79201435678003,42.666666666666664" fill="hsl(-89.95875533670187,64.38487368170172%,47.33657955657691%)" stroke="hsl(-89.95875533670187,64.38487368170172%,47.33657955657691%)"></polygon><polygon points="33.20798564321996,53.333333333333336 30.12878420754196,58.66666666666667 23.97038133618595,58.66666666666667 20.891179900507943,53.333333333333336 23.970381336185945,48 30.12878420754196,48" fill="hsl(-89.95875533670187,64.38487368170172%,47.33657955657691%)" stroke="hsl(-89.95875533670187,64.38487368170172%,47.33657955657691%)"></polygon><polygon points="33.20798564321996,64 30.12878420754196,69.33333333333333 23.97038133618595,69.33333333333333 20.891179900507943,64 23.970381336185945,58.66666666666667 30.12878420754196,58.666666666666664" fill="hsl(-89.95875533670187,64.38487368170172%,47.33657955657691%)" stroke="hsl(-89.95875533670187,64.38487368170172%,47.33657955657691%)"></polygon><polygon points="42.445589950253975,37.333333333333336 39.36638851457597,42.66666666666667 33.20798564321996,42.66666666666667 30.128784207541955,37.333333333333336 33.207985643219956,32 39.36638851457597,32" fill="hsl(-89.95875533670187,64.38487368170172%,47.33657955657691%)" stroke="hsl(-89.95875533670187,64.38487368170172%,47.33657955657691%)"></polygon><polygon points="60.920798564322,26.66666666666667 57.841597128644,32.00000000000001 51.68319425728799,32.00000000000001 48.60399282160998,26.66666666666667 51.68319425728798,21.33333333333334 57.841597128644,21.33333333333334" fill="hsl(-89.95875533670187,64.38487368170172%,47.33657955657691%)" stroke="hsl(-89.95875533670187,64.38487368170172%,47.33657955657691%)"></polygon><polygon points="70.158402871356,106.66666666666666 67.079201435678,111.99999999999999 60.920798564322,111.99999999999999 57.84159712864399,106.66666666666666 60.92079856432199,101.33333333333333 67.079201435678,101.33333333333333" fill="hsl(-89.95875533670187,64.38487368170172%,47.33657955657691%)" stroke="hsl(-89.95875533670187,64.38487368170172%,47.33657955657691%)"></polygon><polygon points="79.39600717839002,26.66666666666667 76.31680574271202,32.00000000000001 70.15840287135602,32.00000000000001 67.07920143567802,26.66666666666667 70.15840287135602,21.33333333333334 76.31680574271202,21.33333333333334" fill="hsl(-89.95875533670187,64.38487368170172%,47.33657955657691%)" stroke="hsl(-89.95875533670187,64.38487368170172%,47.33657955657691%)"></polygon><polygon points="97.87121579245803,37.333333333333336 94.79201435678003,42.66666666666667 88.63361148542403,42.66666666666667 85.55441004974602,37.333333333333336 88.63361148542403,32 94.79201435678003,32" fill="hsl(-89.95875533670187,64.38487368170172%,47.33657955657691%)" stroke="hsl(-89.95875533670187,64.38487368170172%,47.33657955657691%)"></polygon><polygon points="107.10882009949205,53.333333333333336 104.02961866381405,58.66666666666667 97.87121579245805,58.66666666666667 94.79201435678004,53.333333333333336 97.87121579245805,48 104.02961866381405,48" fill="hsl(-89.95875533670187,64.38487368170172%,47.33657955657691%)" stroke="hsl(-89.95875533670187,64.38487368170172%,47.33657955657691%)"></polygon><polygon points="107.10882009949205,64 104.02961866381405,69.33333333333333 97.87121579245805,69.33333333333333 94.79201435678004,64 97.87121579245805,58.66666666666667 104.02961866381405,58.666666666666664" fill="hsl(-89.95875533670187,64.38487368170172%,47.33657955657691%)" stroke="hsl(-89.95875533670187,64.38487368170172%,47.33657955657691%)"></polygon><polygon points="23.97038133618595,48 20.891179900507947,53.333333333333336 14.732777029151938,53.333333333333336 11.653575593473933,48 14.732777029151935,42.66666666666667 20.891179900507947,42.666666666666664" fill="hsl(-89.95875533670187,64.38487368170172%,47.33657955657691%)" stroke="hsl(-89.95875533670187,64.38487368170172%,47.33657955657691%)"></polygon><polygon points="23.97038133618595,58.666666666666664 20.891179900507947,64 14.732777029151938,64 11.653575593473933,58.666666666666664 14.732777029151935,53.33333333333333 20.891179900507947,53.33333333333333" fill="hsl(-89.95875533670187,64.38487368170172%,47.33657955657691%)" stroke="hsl(-89.95875533670187,64.38487368170172%,47.33657955657691%)"></polygon><polygon points="23.97038133618595,69.33333333333333 20.891179900507947,74.66666666666666 14.732777029151938,74.66666666666666 11.653575593473933,69.33333333333333 14.732777029151935,64 20.891179900507947,63.99999999999999" fill="hsl(-89.95875533670187,64.38487368170172%,47.33657955657691%)" stroke="hsl(-89.95875533670187,64.38487368170172%,47.33657955657691%)"></polygon><polygon points="23.97038133618595,80 20.891179900507947,85.33333333333333 14.732777029151938,85.33333333333333 11.653575593473933,80 14.732777029151935,74.66666666666667 20.891179900507947,74.66666666666667" fill="hsl(-89.95875533670187,64.38487368170172%,47.33657955657691%)" stroke="hsl(-89.95875533670187,64.38487368170172%,47.33657955657691%)"></polygon><polygon points="42.445589950253975,26.66666666666667 39.36638851457597,32.00000000000001 33.20798564321996,32.00000000000001 30.128784207541955,26.66666666666667 33.207985643219956,21.33333333333334 39.36638851457597,21.33333333333334" fill="hsl(-89.95875533670187,64.38487368170172%,47.33657955657691%)" stroke="hsl(-89.95875533670187,64.38487368170172%,47.33657955657691%)"></polygon><polygon points="51.68319425728799,21.333333333333336 48.60399282160998,26.666666666666668 42.445589950253975,26.66666666666667 39.366388514575966,21.333333333333336 42.44558995025397,16.000000000000004 48.60399282160998,16.000000000000004" fill="hsl(-89.95875533670187,64.38487368170172%,47.33657955657691%)" stroke="hsl(-89.95875533670187,64.38487368170172%,47.33657955657691%)"></polygon><polygon points="60.920798564322,16 57.841597128644,21.333333333333332 51.68319425728799,21.333333333333336 48.60399282160998,16 51.68319425728798,10.666666666666668 57.841597128644,10.666666666666668" fill="hsl(-89.95875533670187,64.38487368170172%,47.33657955657691%)" stroke="hsl(-89.95875533670187,64.38487368170172%,47.33657955657691%)"></polygon><polygon points="60.920798564322,112 57.841597128644,117.33333333333333 51.68319425728799,117.33333333333333 48.60399282160998,112 51.68319425728798,106.66666666666667 57.841597128644,106.66666666666667" fill="hsl(-89.95875533670187,64.38487368170172%,47.33657955657691%)" stroke="hsl(-89.95875533670187,64.38487368170172%,47.33657955657691%)"></polygon><polygon points="70.158402871356,117.33333333333333 67.079201435678,122.66666666666666 60.920798564322,122.66666666666666 57.84159712864399,117.33333333333333 60.92079856432199,112 67.079201435678,112" fill="hsl(-89.95875533670187,64.38487368170172%,47.33657955657691%)" stroke="hsl(-89.95875533670187,64.38487368170172%,47.33657955657691%)"></polygon><polygon points="79.39600717839002,16 76.31680574271202,21.333333333333332 70.15840287135602,21.333333333333336 67.07920143567802,16 70.15840287135602,10.666666666666668 76.31680574271202,10.666666666666668" fill="hsl(-89.95875533670187,64.38487368170172%,47.33657955657691%)" stroke="hsl(-89.95875533670187,64.38487368170172%,47.33657955657691%)"></polygon><polygon points="79.39600717839002,112 76.31680574271202,117.33333333333333 70.15840287135602,117.33333333333333 67.07920143567802,112 70.15840287135602,106.66666666666667 76.31680574271202,106.66666666666667" fill="hsl(-89.95875533670187,64.38487368170172%,47.33657955657691%)" stroke="hsl(-89.95875533670187,64.38487368170172%,47.33657955657691%)"></polygon><polygon points="88.63361148542403,21.333333333333336 85.55441004974602,26.666666666666668 79.39600717839002,26.66666666666667 76.31680574271202,21.333333333333336 79.39600717839002,16.000000000000004 85.55441004974602,16.000000000000004" fill="hsl(-89.95875533670187,64.38487368170172%,47.33657955657691%)" stroke="hsl(-89.95875533670187,64.38487368170172%,47.33657955657691%)"></polygon><polygon points="97.87121579245803,26.66666666666667 94.79201435678003,32.00000000000001 88.63361148542403,32.00000000000001 85.55441004974602,26.66666666666667 88.63361148542403,21.33333333333334 94.79201435678003,21.33333333333334" fill="hsl(-89.95875533670187,64.38487368170172%,47.33657955657691%)" stroke="hsl(-89.95875533670187,64.38487368170172%,47.33657955657691%)"></polygon><polygon points="116.34642440652607,48 113.26722297084807,53.333333333333336 107.10882009949206,53.333333333333336 104.02961866381406,48 107.10882009949206,42.66666666666667 113.26722297084807,42.666666666666664" fill="hsl(-89.95875533670187,64.38487368170172%,47.33657955657691%)" stroke="hsl(-89.95875533670187,64.38487368170172%,47.33657955657691%)"></polygon><polygon points="116.34642440652607,58.666666666666664 113.26722297084807,64 107.10882009949206,64 104.02961866381406,58.666666666666664 107.10882009949206,53.33333333333333 113.26722297084807,53.33333333333333" fill="hsl(-89.95875533670187,64.38487368170172%,47.33657955657691%)" stroke="hsl(-89.95875533670187,64.38487368170172%,47.33657955657691%)"></polygon><polygon points="116.34642440652607,69.33333333333333 113.26722297084807,74.66666666666666 107.10882009949206,74.66666666666666 104.02961866381406,69.33333333333333 107.10882009949206,64 113.26722297084807,63.99999999999999" fill="hsl(-89.95875533670187,64.38487368170172%,47.33657955657691%)" stroke="hsl(-89.95875533670187,64.38487368170172%,47.33657955657691%)"></polygon><polygon points="116.34642440652607,80 113.26722297084807,85.33333333333333 107.10882009949206,85.33333333333333 104.02961866381406,80 107.10882009949206,74.66666666666667 113.26722297084807,74.66666666666667" fill="hsl(-89.95875533670187,64.38487368170172%,47.33657955657691%)" stroke="hsl(-89.95875533670187,64.38487368170172%,47.33657955657691%)"></polygon></svg>